<?xml version="1.0" standalone="no"?>
<!DOCTYPE svg PUBLIC "-//W3C//DTD SVG 20010904//EN"
 "http://www.w3.org/TR/2001/REC-SVG-20010904/DTD/svg10.dtd">
<svg version="1.0" xmlns="http://www.w3.org/2000/svg"
 width="300.000000pt" height="250.000000pt" viewBox="0 0 300.000000 250.000000"
 preserveAspectRatio="xMidYMid meet">
<metadata>
Created by potrace 1.10, written by Peter Selinger 2001-2011
</metadata>
<g transform="translate(0.000000,250.000000) scale(0.100000,-0.100000)"
fill="#000000" stroke="none">
<path d="M404 2457 c-67 -22 -125 -86 -117 -130 5 -26 233 -316 233 -296 0 7
-20 39 -45 70 -31 39 -41 60 -34 65 8 5 9 3 4 -6 -5 -8 -4 -11 2 -7 14 9 37
-19 28 -33 -4 -6 -1 -9 7 -8 7 2 12 -3 10 -10 -1 -8 2 -11 9 -6 7 4 9 3 5 -4
-3 -6 -2 -13 3 -17 6 -3 8 3 6 15 -3 18 -160 220 -170 220 -10 0 -4 -11 26
-45 18 -20 29 -38 26 -42 -9 -8 -37 16 -37 32 0 12 -27 41 -44 47 -6 2 -11 17
-13 34 -3 26 4 38 37 68 44 40 59 45 58 19 -2 -24 163 -227 187 -231 18 -4 7
12 -107 146 -31 36 -30 47 2 55 15 4 29 -3 48 -25 15 -16 26 -32 25 -34 -1 -2
10 -16 25 -32 65 -70 74 -82 61 -82 -8 0 -31 19 -53 42 l-38 43 33 -43 c17
-24 37 -45 43 -47 6 -2 23 -6 38 -9 19 -4 32 -19 49 -53 21 -44 24 -64 26
-223 2 -96 8 -209 14 -250 14 -94 68 -262 82 -253 6 3 7 1 3 -5 -9 -15 29 -74
95 -147 30 -33 61 -68 70 -78 16 -17 18 -17 48 8 25 22 31 34 31 65 0 37 2 40
57 64 31 15 53 29 50 32 -10 11 -54 -5 -84 -30 l-28 -23 -16 34 c-16 33 -16
33 9 40 16 4 27 2 30 -5 2 -7 8 -12 13 -12 4 0 6 7 3 15 -5 12 4 15 47 15 39
0 50 3 39 10 -8 5 -28 10 -44 10 l-29 0 27 26 c19 20 26 36 25 63 -1 37 -3 35
-13 -11 -6 -25 -66 -99 -66 -81 0 4 -4 3 -8 -3 -14 -22 -57 -24 -89 -4 -24 14
-33 29 -38 57 -10 63 -14 71 -11 19 3 -41 10 -54 49 -95 43 -43 76 -101 59
-101 -5 0 -53 53 -107 117 -107 127 -127 170 -141 310 -10 93 -28 80 -21 -14
4 -43 8 -87 9 -97 2 -10 -2 -21 -9 -23 -20 -7 -29 71 -38 342 -6 182 -8 206
-19 223 -4 7 -3 12 2 12 5 0 17 -18 27 -40 10 -22 22 -40 27 -40 4 0 8 -8 8
-17 0 -16 14 -19 123 -23 67 -2 143 -5 169 -5 25 0 44 -3 42 -6 -2 -3 22 -5
53 -3 82 5 95 -9 28 -30 -31 -9 -68 -17 -83 -16 -47 3 -59 1 -44 -9 10 -6 6
-11 -16 -19 -17 -6 -33 -8 -36 -5 -3 3 -12 1 -19 -6 -18 -14 -189 -4 -199 13
-5 7 -8 3 -8 -10 0 -11 -5 -25 -12 -32 -9 -9 -9 -18 0 -37 7 -14 12 -34 12
-45 0 -10 12 -33 27 -51 25 -29 25 -31 5 -20 -31 16 -28 7 14 -39 20 -21 33
-44 29 -50 -5 -8 -11 -7 -21 1 -11 9 -10 3 3 -19 18 -32 18 -32 21 -7 3 26 58
75 84 75 8 0 17 3 20 6 8 8 -74 153 -91 159 -26 10 -22 -2 20 -71 23 -38 43
-72 46 -76 2 -5 0 -8 -5 -8 -5 0 -24 23 -42 51 -18 28 -50 63 -71 78 -63 43
-52 49 76 43 106 -4 118 -3 138 15 21 19 79 53 92 53 14 0 3 -18 -15 -23 -19
-5 -31 -25 -44 -79 -4 -17 -2 -28 4 -28 5 0 12 11 16 25 3 14 10 25 14 25 4 0
17 16 29 35 23 39 87 74 134 75 15 0 27 -2 27 -4 0 -2 -12 -25 -26 -50 -15
-26 -24 -49 -22 -52 3 -2 142 -9 309 -15 167 -6 310 -13 316 -15 8 -2 10 -10
6 -21 -5 -12 -8 -13 -11 -3 -3 7 -14 -6 -26 -31 -16 -34 -26 -44 -43 -43 -13
1 -23 -3 -23 -7 0 -5 -4 -9 -9 -9 -9 0 -9 19 2 75 4 17 -1 6 -11 -22 -9 -29
-22 -55 -29 -57 -8 -3 -7 7 4 32 10 23 11 38 5 40 -6 2 -8 11 -5 20 4 11 3 14
-4 7 -6 -5 -15 -31 -21 -56 -7 -26 -15 -55 -19 -64 -5 -15 -3 -17 13 -11 18 8
89 27 147 40 15 4 27 12 27 19 0 6 5 29 11 50 l10 38 115 -2 114 -1 0 -37 c0
-20 7 -45 16 -56 14 -19 13 -20 -18 -25 -38 -6 -69 -53 -48 -73 8 -9 10 -8 5
6 -4 10 -2 17 4 17 6 0 11 -4 11 -9 0 -14 53 3 58 18 3 10 -2 12 -22 7 -15 -4
-26 -2 -26 4 0 5 15 10 34 10 l33 0 -11 -35 c-8 -28 -15 -35 -29 -31 -26 7
-47 -3 -47 -22 0 -12 3 -13 12 -4 7 7 16 12 21 12 5 0 2 -7 -7 -15 -8 -8 -19
-15 -25 -15 -6 0 -11 -9 -11 -20 0 -11 -6 -20 -13 -20 -8 0 -13 9 -11 23 1 12
3 26 3 30 1 5 5 5 11 2 6 -3 7 1 4 9 -3 9 -9 15 -12 14 -4 -1 -24 7 -45 16
-33 15 -63 16 -210 12 -95 -3 -191 -7 -214 -9 l-43 -5 -1 87 c0 47 -4 95 -9
106 -6 12 -7 -19 -3 -78 4 -73 3 -101 -6 -106 -23 -15 70 -33 109 -21 19 5 46
9 60 9 17 -1 19 -3 8 -6 -10 -2 -18 -9 -18 -14 0 -6 -5 -7 -12 -3 -7 5 -9 2
-5 -9 4 -10 -6 -24 -29 -42 -32 -24 -34 -25 -34 -6 0 27 -10 51 -22 51 -5 0
-7 -4 -4 -9 3 -5 -1 -11 -9 -15 -8 -3 -13 -11 -10 -18 5 -15 -22 -55 -31 -46
-3 3 0 15 7 26 34 55 -56 75 -110 25 -31 -29 -49 -101 -23 -96 7 2 12 -2 12
-7 0 -6 11 -10 25 -10 35 0 32 -26 -6 -78 -17 -24 -28 -46 -25 -50 4 -3 11 0
16 8 7 11 10 8 10 -12 0 -33 6 -34 33 -10 19 16 20 16 15 -10 -3 -16 -1 -28 3
-28 5 0 9 -8 9 -17 0 -14 -3 -13 -23 5 -49 46 -39 19 13 -33 30 -30 61 -55 70
-55 12 1 11 3 -3 15 -25 18 -17 30 78 112 44 38 85 79 91 91 6 12 13 20 16 17
3 -3 18 14 33 37 15 24 37 54 49 68 l21 25 -24 -20 c-13 -11 -38 -35 -56 -54
-26 -27 -40 -34 -81 -38 -27 -2 -66 -12 -87 -22 -20 -10 -40 -15 -43 -10 -3 5
36 28 85 50 50 23 91 46 91 50 0 5 -14 9 -31 9 -17 0 -28 -4 -24 -10 3 -5 -21
-23 -54 -40 -70 -35 -67 -34 -75 -15 -4 10 5 20 29 29 19 8 35 21 35 29 0 20
33 27 90 20 30 -3 50 -1 54 6 4 6 20 11 37 11 16 0 29 4 29 9 0 5 8 11 18 14
9 2 -7 3 -37 1 -29 -2 -71 -9 -93 -15 -73 -19 -50 -2 28 21 67 19 97 40 81 56
-3 3 -37 -11 -76 -30 -39 -20 -74 -36 -77 -36 -13 0 39 50 58 56 10 3 16 9 13
14 -3 5 -1 11 5 15 5 3 10 2 10 -4 0 -7 8 -7 23 -2 14 6 30 6 38 0 17 -11 32
-12 26 -1 -3 4 8 8 24 9 17 1 32 -3 35 -11 4 -9 19 -12 53 -8 44 4 51 2 66
-22 22 -34 13 -69 -24 -95 -16 -12 -40 -40 -54 -64 -26 -43 -106 -124 -119
-119 -5 1 -7 -1 -6 -5 2 -5 -5 -19 -15 -33 -10 -14 -31 -44 -47 -67 -28 -40
-30 -41 -103 -48 -116 -11 -230 -11 -247 0 -8 5 -30 11 -49 12 -18 1 -42 10
-53 19 -10 10 -26 19 -34 20 -19 3 -44 23 -44 36 0 6 7 5 15 -2 13 -11 14 -10
10 3 -8 20 12 32 31 16 12 -10 13 -9 8 6 -6 14 -4 16 7 10 11 -7 12 -6 2 7 -7
8 -10 18 -6 22 4 3 36 -22 72 -56 36 -35 58 -54 49 -43 -30 38 -8 46 28 10 18
-19 37 -35 41 -35 5 0 -3 11 -17 23 -41 37 -123 137 -112 137 6 0 18 -7 27
-16 9 -9 19 -14 22 -10 3 3 -17 26 -46 52 -44 40 -51 51 -51 83 0 21 -12 71
-26 112 -21 59 -26 94 -28 176 0 57 -4 103 -8 103 -13 0 -20 -71 -14 -143 8
-90 10 -99 19 -114 5 -7 5 -17 2 -23 -3 -5 -1 -10 5 -10 7 0 10 -6 7 -14 -3
-7 -1 -18 5 -24 13 -13 31 -111 30 -161 -1 -32 -21 -65 -53 -81 -13 -7 -15 -4
-11 19 2 16 -1 32 -7 35 -13 8 -25 -52 -19 -99 3 -29 1 -34 -11 -29 -9 4 -26
9 -39 11 -20 5 -22 10 -16 39 4 20 2 34 -4 34 -14 0 -34 -26 -31 -42 3 -25 -1
-39 -10 -33 -6 3 -15 -4 -21 -15 -7 -13 -7 -20 0 -20 5 0 10 4 10 8 0 12 140
-7 169 -23 24 -12 25 -17 25 -119 1 -91 -1 -105 -14 -100 -72 30 -191 27 -233
-6 l-24 -19 -6 47 c-13 107 -16 167 -8 142 5 -14 10 -43 11 -65 1 -22 6 -51
10 -65 6 -18 8 -10 4 25 -11 115 -15 130 -38 147 -23 17 -24 17 -22 -7 0 -14
4 -25 8 -25 10 0 6 -23 -6 -31 -12 -9 1 -42 14 -34 5 3 10 1 10 -4 0 -6 -4
-11 -8 -11 -5 0 -9 -24 -11 -52 -1 -29 -4 -62 -7 -73 -4 -16 -3 -17 5 -5 6 8
11 28 11 44 0 35 7 31 14 -8 7 -39 12 -42 49 -27 82 33 174 35 208 6 13 -13
18 -13 36 0 12 8 23 11 25 6 2 -4 12 -5 23 0 18 7 18 8 2 8 -10 1 -25 8 -33
16 -16 16 -14 18 31 28 14 3 11 5 -10 7 l-30 3 35 7 35 7 -30 2 c-30 1 -31 2
-31 56 0 66 -14 61 216 75 225 13 224 13 274 84 23 33 48 62 56 64 11 4 10 -1
-4 -22 -10 -15 -15 -30 -13 -32 6 -7 -41 -54 -53 -54 -6 0 -10 -5 -10 -10 0
-11 49 -8 230 11 52 5 142 14 200 19 165 15 328 29 413 36 l77 7 -1 -341 c0
-311 -2 -341 -17 -346 -9 -2 -39 -9 -67 -16 -27 -6 -141 -33 -251 -60 -183
-45 -241 -58 -284 -65 -8 -1 -22 -5 -30 -8 -8 -3 -103 -26 -210 -52 -107 -25
-287 -69 -400 -96 -112 -27 -210 -47 -216 -45 -7 3 -14 0 -16 -5 -2 -6 -24
-12 -48 -13 -34 -2 -46 -7 -48 -20 -4 -19 -9 -20 163 26 61 17 119 31 131 32
11 1 24 5 30 8 5 3 32 10 59 16 84 19 561 131 715 168 80 19 201 48 270 65
117 27 180 43 223 55 15 5 18 0 15 -35 -2 -39 -4 -42 -40 -51 -20 -6 -48 -9
-60 -7 -13 2 -16 2 -8 -1 8 -3 -88 -31 -215 -63 -126 -32 -318 -81 -425 -109
-107 -29 -203 -54 -212 -56 -60 -14 -77 -19 -98 -27 -8 -3 -71 -20 -140 -37
-170 -44 -402 -106 -420 -113 -55 -20 -52 -32 -48 155 2 120 7 175 16 184 6 7
12 25 11 41 0 15 -3 21 -6 13 -14 -44 -18 -37 -23 45 -4 55 -7 -17 -8 -182 -1
-150 -4 -273 -7 -273 -3 0 -91 44 -195 98 -113 58 -190 103 -191 112 0 9 -2
11 -5 3 -7 -17 -34 -4 -35 16 0 9 -3 11 -5 5 -5 -11 -153 59 -165 78 -3 5 -8
8 -10 6 -3 -1 -24 6 -47 16 -35 16 -41 23 -38 45 1 14 6 35 11 45 6 13 5 21
-3 24 -15 5 -16 678 -1 687 5 4 9 14 8 23 0 14 -2 13 -9 -3 -9 -20 -9 -20 -9
0 0 26 34 81 48 78 6 -2 11 3 11 11 0 20 21 31 30 16 5 -7 10 2 14 24 4 19 13
42 22 50 8 8 13 19 12 23 -1 4 6 22 15 40 9 18 17 45 17 60 0 19 3 24 9 15 10
-16 21 54 21 130 0 30 4 47 10 43 6 -4 10 18 10 59 0 37 -4 66 -10 66 -5 0
-10 8 -10 19 0 10 -7 24 -15 31 -18 15 -20 34 -3 24 20 -13 -26 47 -93 120
-65 71 -107 97 -156 95 -25 0 -24 -2 12 -15 35 -13 81 -51 72 -60 -2 -2 -21 5
-42 16 -44 23 -85 26 -103 8 -27 -27 -4 -116 40 -155 12 -10 18 -12 13 -4 -5
9 -4 12 3 7 6 -4 9 -13 6 -20 -3 -8 21 -37 60 -72 36 -32 63 -61 61 -64 -2 -4
11 -22 30 -40 19 -19 35 -31 35 -27 0 4 14 -8 31 -27 l30 -35 -20 -76 c-29
-105 -63 -167 -127 -232 l-54 -55 0 -432 0 -432 356 -183 c317 -163 360 -183
392 -177 19 3 38 9 41 15 3 5 78 28 166 51 958 251 1425 372 1450 374 17 2 33
4 38 5 4 0 7 180 7 399 0 303 -3 402 -12 414 -7 9 -37 31 -67 48 -59 34 -151
108 -151 122 0 4 24 8 53 9 28 0 46 3 39 6 -10 4 -10 8 -1 19 16 19 4 18 -75
-6 -72 -23 -83 -40 -36 -60 33 -14 44 -36 35 -72 -4 -17 0 -29 14 -42 21 -19
29 -56 12 -56 -6 0 -16 12 -23 27 -18 37 -38 41 -38 7 0 -15 -3 -24 -7 -21 -3
4 -12 2 -20 -4 -7 -6 -13 -8 -13 -4 0 4 -6 2 -13 -4 -11 -8 -19 -3 -38 26 -27
42 -85 85 -108 81 -10 -2 -23 -29 -35 -71 -19 -64 -36 -87 -36 -49 -1 16 -1
16 -11 0 -5 -10 -16 -18 -24 -18 -11 0 -12 6 -3 31 6 16 8 32 6 34 -3 3 -29
-13 -58 -35 -46 -34 -80 -50 -80 -36 0 2 33 29 74 59 l74 56 7 -32 8 -32 10
42 c6 25 17 45 31 51 16 8 17 11 5 11 -19 1 -92 -47 -185 -120 -34 -27 -64
-46 -67 -42 -5 5 56 59 134 116 17 13 13 13 -14 -2 -48 -26 -55 -26 -31 0 31
35 103 72 147 76 23 3 47 9 53 13 6 5 15 6 20 1 15 -13 67 -24 59 -11 -3 5
-18 11 -33 11 -19 1 -21 3 -9 6 41 10 85 -8 132 -55 40 -39 46 -43 40 -22 -11
38 -53 78 -101 96 -103 39 -232 -9 -366 -134 -43 -41 -78 -71 -78 -66 0 4 -11
-2 -23 -15 -26 -23 -42 -21 -90 11 l-27 20 21 29 c11 16 25 27 30 24 5 -3 23
10 40 29 17 20 36 33 41 30 6 -4 5 -10 -3 -16 -11 -8 -11 -9 1 -5 8 2 30 -4
48 -15 18 -11 36 -18 39 -14 8 8 -18 37 -28 31 -4 -3 -17 3 -27 13 -11 11 -24
21 -30 23 -6 2 -13 18 -17 34 -6 27 -5 28 8 13 12 -15 16 -16 33 -4 10 8 24
12 31 9 7 -3 25 4 40 15 l29 20 39 -24 c42 -25 55 -29 55 -16 0 5 -23 20 -51
35 l-51 26 33 17 c26 13 37 14 52 5 22 -14 57 -5 57 15 0 12 11 14 50 12 27
-2 50 -6 50 -10 0 -5 11 -8 25 -8 14 0 48 -11 75 -25 28 -14 50 -21 50 -16 0
5 -15 15 -34 22 -29 10 -35 18 -39 48 -2 20 0 48 6 64 9 28 3 77 -11 77 -4 0
-6 -15 -4 -34 2 -18 -1 -44 -8 -56 -9 -16 -9 -25 0 -36 10 -11 9 -15 -4 -20
-21 -8 -65 44 -66 78 0 14 4 28 10 30 5 2 12 19 15 38 l5 35 -16 -37 c-16 -36
-20 -38 -63 -39 -25 -1 -52 -1 -58 0 -7 1 -13 -5 -13 -15 0 -13 8 -15 50 -9
34 5 50 3 50 -4 0 -14 -42 -31 -77 -31 -22 0 -24 -3 -19 -25 7 -28 -17 -46
-36 -27 -6 6 -21 7 -38 2 l-27 -8 14 29 c10 20 22 29 39 29 23 0 28 8 25 41
-1 9 7 37 18 62 l20 47 80 0 c69 0 82 -3 94 -21 15 -20 15 -20 23 5 14 41 0
226 -20 264 -21 41 -70 72 -114 72 -37 0 -88 -26 -97 -48 -7 -20 4 -30 15 -13
4 8 15 11 24 8 11 -5 16 -1 16 13 0 29 15 32 18 3 3 -35 12 -43 13 -12 1 13 1
27 0 32 -4 23 56 -10 85 -49 26 -34 28 -44 31 -140 l3 -104 -32 5 c-18 3 -39
11 -47 18 -9 7 -12 7 -8 1 4 -7 -10 -11 -40 -13 -28 -1 -55 -8 -67 -19 -11 -9
-16 -12 -13 -6 4 7 0 15 -9 18 -10 4 -14 14 -11 26 3 11 2 20 -2 20 -4 0 -8 7
-8 15 0 12 14 15 67 15 59 0 68 3 79 23 6 12 12 34 13 47 1 14 6 32 12 40 6 8
6 12 2 8 -5 -4 -21 -1 -35 7 -17 9 -81 18 -180 24 -84 6 -155 12 -157 14 -2 2
7 44 21 93 14 49 25 97 25 106 0 22 -75 78 -105 78 -25 0 -46 -38 -38 -69 7
-26 23 -17 23 13 0 12 3 25 6 28 8 9 45 -3 39 -12 -3 -5 -2 -16 2 -26 6 -15 8
-14 16 7 8 20 11 21 14 6 3 -9 9 -14 15 -11 8 5 9 -1 4 -17 -3 -13 -11 -49
-17 -79 -6 -30 -17 -63 -25 -74 -11 -16 -11 -23 -1 -34 10 -13 3 -14 -58 -9
-38 3 -284 20 -545 37 -261 17 -489 33 -507 36 -25 4 -34 11 -43 39 -18 55
-47 84 -91 91 -21 4 -39 9 -39 13 0 4 -36 51 -81 106 -90 110 -128 137 -175
122z m83 -32 c2 -6 -10 -16 -27 -22 -23 -9 -32 -8 -40 2 -8 10 -7 16 7 24 21
13 55 10 60 -4z m-50 -251 c-10 -10 -48 27 -41 38 4 6 16 1 27 -11 12 -11 18
-24 14 -27z m-175 -116 c-30 -15 -41 -57 -17 -70 13 -8 14 -12 5 -18 -9 -6 -9
-13 -1 -29 7 -11 9 -21 7 -21 -3 0 -15 18 -26 40 -34 67 -23 111 30 109 l25 0
-23 -11z m164 -45 c84 -98 90 -111 18 -40 -39 37 -72 65 -75 63 -3 -3 -5 4 -6
14 -3 31 10 24 63 -37z m-4 -70 c49 -57 92 -103 94 -103 8 0 -32 55 -51 70 -9
7 -21 22 -26 33 -17 31 13 9 53 -39 33 -40 35 -44 37 -137 1 -66 -2 -98 -10
-103 -7 -4 -9 -3 -5 4 6 9 -138 182 -152 182 -5 0 11 -21 68 -85 25 -29 19
-25 -21 13 -30 29 -58 50 -61 47 -3 -3 -16 7 -28 22 l-22 28 24 6 c15 5 17 7
6 8 -16 1 -62 41 -54 48 1 2 16 -3 32 -12 42 -21 63 -19 70 9 6 26 -14 74 -42
96 -9 8 -5 -3 10 -24 27 -41 33 -70 15 -81 -13 -9 -45 20 -76 68 -28 44 -24
57 19 54 26 -2 46 -19 120 -104z m1128 62 c229 -19 370 -24 370 -13 0 4 7 8
15 8 8 0 15 -4 15 -9 0 -10 156 -26 210 -21 100 8 129 3 142 -25 8 -19 8 -31
0 -50 -12 -25 -12 -25 -114 -19 -57 4 -106 11 -109 17 -4 5 -9 5 -14 -2 -4 -8
-38 -10 -113 -5 -128 8 -124 8 -138 16 -6 4 -49 10 -95 12 -55 4 -73 2 -54 -3
l30 -9 -30 -1 c-17 0 -35 3 -40 8 -13 12 -115 20 -115 9 0 -7 -70 -4 -150 6
-14 2 -31 4 -37 5 -21 2 -15 22 7 28 16 4 18 8 9 19 -6 8 -8 14 -3 14 4 0 -1
7 -12 15 -17 13 -10 14 71 10 50 -2 119 -7 155 -10z m-1255 -53 c-8 -8 -25 10
-25 26 0 13 2 13 14 -4 8 -10 13 -21 11 -22z m1313 -49 c-10 -2 -28 -2 -40 0
-13 2 -5 4 17 4 22 1 32 -1 23 -4z m180 -10 c-10 -2 -28 -2 -40 0 -13 2 -5 4
17 4 22 1 32 -1 23 -4z m-868 -166 c-1 -14 -65 57 -81 88 -5 11 10 -2 35 -28
26 -27 46 -54 46 -60z m-455 -10 c4 5 5 2 1 -5 -6 -11 -15 -7 -37 14 -16 15
-29 30 -29 33 0 2 13 -7 28 -22 16 -15 32 -24 37 -20z m1854 -123 c17 -4 29
-10 26 -14 -8 -12 -119 -4 -123 9 -4 12 46 15 97 5z m-783 -16 c4 -6 -1 -17
-10 -24 -14 -10 -15 -17 -7 -31 10 -17 10 -17 11 2 0 15 3 16 12 7 6 -6 13
-35 14 -64 1 -29 7 -82 13 -117 6 -36 9 -67 7 -69 -4 -3 -10 20 -22 91 -3 20
-10 37 -14 37 -4 0 -1 -33 6 -72 17 -89 17 -101 2 -96 -11 4 -38 108 -40 160
0 15 -5 25 -9 22 -4 -2 -5 11 -2 31 5 29 3 35 -12 35 -10 0 -27 7 -37 17 -23
20 -24 63 -2 63 12 0 15 -6 10 -24 -7 -29 20 -59 30 -32 3 8 4 21 1 28 -11 32
32 64 49 36z m71 -27 c-4 -19 -2 -31 6 -34 6 -2 2 -6 -10 -9 -17 -4 -20 -2
-16 10 4 10 2 13 -5 8 -17 -10 -15 1 6 29 22 32 26 31 19 -4z m471 -31 c-20
-35 -23 -37 -26 -18 -3 14 4 29 18 40 32 26 33 23 8 -22z m-1247 -20 c6 0 7
-5 3 -11 -8 -14 -24 8 -23 31 1 11 3 10 6 -2 2 -10 9 -18 14 -18z m1176 -20
c-9 -20 -17 -28 -21 -21 -8 12 21 67 30 58 2 -2 -2 -19 -9 -37z m-1009 -138
c63 -73 82 -102 68 -102 -10 0 -175 200 -190 230 l-17 35 33 -40 c18 -22 66
-77 106 -123z m-155 123 c-3 -9 -8 -14 -10 -11 -3 3 -2 9 2 15 9 16 15 13 8
-4z m897 -23 c0 -4 -33 -40 -74 -81 l-73 -73 -6 39 c-4 21 -7 44 -7 50 0 18
45 45 98 59 58 16 62 16 62 6z m-866 -33 c4 1 25 -22 48 -51 22 -29 59 -72 81
-95 31 -32 37 -43 24 -43 -23 0 -59 38 -112 118 -15 23 -30 42 -32 42 -2 0 -1
-4 2 -10 3 -5 4 -10 1 -10 -6 0 -36 56 -36 67 0 4 4 2 9 -5 4 -8 11 -13 15
-13z m482 -27 c-3 -2 10 -23 28 -46 44 -54 36 -79 -10 -34 -37 35 -66 76 -45
63 8 -4 10 2 7 20 -4 23 -3 25 10 14 8 -6 12 -14 10 -17z m128 -14 c4 -17 2
-28 -4 -28 -5 0 -10 14 -10 32 0 36 4 35 14 -4z m436 2 c-11 -20 -50 -46 -50
-33 0 10 42 53 52 53 5 0 4 -9 -2 -20z m768 -44 l62 -37 1 -207 c2 -391 -1
-566 -11 -576 -9 -9 -16 548 -10 725 2 55 -7 62 -66 62 -47 -1 -66 17 -76 70
-5 26 -4 27 16 14 11 -7 49 -30 84 -51z m-268 -36 c0 -14 -68 -28 -79 -17 -7
7 -11 7 -11 1 0 -6 -7 -11 -15 -11 -9 0 -15 10 -15 24 0 13 5 23 10 23 6 0 10
8 10 18 0 10 3 22 6 25 7 7 94 -52 94 -63z m-536 -65 c19 -14 18 -15 -12 -15
-24 0 -30 4 -26 15 7 18 14 18 38 0z m-566 -36 c13 -16 20 -29 15 -29 -4 0
-20 16 -36 35 -15 19 -22 32 -15 29 7 -3 23 -19 36 -35z"/>
<path d="M390 1907 c-11 -23 -23 -33 -42 -35 -32 -4 -35 -14 -11 -33 9 -8 14
-9 10 -3 -3 6 9 18 28 27 34 16 54 52 38 67 -4 5 -15 -6 -23 -23z"/>
<path d="M1378 1963 c12 -2 30 -2 40 0 9 3 -1 5 -23 4 -22 0 -30 -2 -17 -4z"/>
<path d="M1508 1963 c7 -3 16 -2 19 1 4 3 -2 6 -13 5 -11 0 -14 -3 -6 -6z"/>
<path d="M1598 1963 c6 -2 18 -2 25 0 6 3 1 5 -13 5 -14 0 -19 -2 -12 -5z"/>
<path d="M2018 1893 c6 -2 18 -2 25 0 6 3 1 5 -13 5 -14 0 -19 -2 -12 -5z"/>
<path d="M1515 1469 c-8 -35 -4 -42 17 -34 10 4 13 16 10 35 -6 39 -19 38 -27
-1z"/>
<path d="M2662 1315 c9 -10 21 -16 28 -13 7 2 -1 10 -16 17 -27 12 -28 11 -12
-4z"/>
<path d="M340 2370 c-32 -30 -32 -53 0 -48 13 2 45 -31 109 -111 50 -62 91
-106 91 -97 0 10 4 15 9 11 6 -3 6 -18 0 -38 -13 -45 -14 -200 -1 -223 9 -15
11 13 12 114 0 81 4 132 10 132 6 0 10 6 10 14 0 7 7 19 15 26 8 7 12 16 9 21
-9 16 -20 10 -33 -17 -12 -27 -21 -27 -25 -1 -3 20 -23 49 -100 145 -37 46
-64 87 -61 93 13 20 -14 8 -45 -21z m123 -108 c66 -84 90 -132 68 -132 -11 0
-32 26 -26 31 2 3 -29 46 -69 96 -54 68 -76 89 -84 81 -7 -7 -14 -9 -18 -5
-12 11 5 24 31 23 20 -1 42 -23 98 -94z"/>
<path d="M2216 2349 c-12 -34 -15 -54 -9 -60 7 -7 13 2 18 28 9 48 21 63 51
63 16 0 24 -6 24 -17 0 -12 -3 -14 -8 -6 -4 6 -7 -9 -8 -33 -1 -31 -7 -50 -21
-64 -20 -18 -79 -165 -90 -225 -10 -52 4 -24 41 85 20 57 44 112 52 121 15 17
44 109 44 142 0 13 -8 17 -38 17 -37 0 -39 -2 -56 -51z"/>
<path d="M2270 2332 c0 -6 -14 -27 -30 -46 -21 -23 -44 -74 -70 -152 -22 -65
-38 -120 -35 -122 8 -8 9 -4 49 112 21 61 48 122 61 138 26 30 40 66 31 75 -3
4 -6 1 -6 -5z"/>
<path d="M1901 2224 c0 -11 3 -14 6 -6 3 7 2 16 -1 19 -3 4 -6 -2 -5 -13z"/>
<path d="M646 2182 c-2 -4 -1 -14 5 -22 7 -12 9 -10 9 8 0 23 -5 28 -14 14z"/>
<path d="M1860 2175 c0 -8 4 -15 8 -15 5 0 9 7 9 15 0 8 -4 15 -9 15 -4 0 -8
-7 -8 -15z"/>
<path d="M672 2146 c1 -14 5 -23 9 -20 7 4 0 44 -7 44 -2 0 -3 -11 -2 -24z"/>
<path d="M1913 2144 c0 -17 2 -22 7 -13 5 6 6 18 3 26 -8 19 -10 16 -10 -13z"/>
<path d="M1407 2143 c-14 -4 -17 -11 -13 -26 3 -12 6 -30 6 -39 0 -10 5 -18
10 -18 6 0 10 11 10 25 0 14 5 25 10 25 6 0 15 -11 20 -25 13 -33 20 -32 20 5
0 20 -5 30 -15 30 -8 0 -15 5 -15 10 0 17 18 11 34 -12 9 -12 16 -32 16 -43 0
-15 2 -17 9 -6 7 11 10 10 14 -5 4 -15 5 -14 6 5 1 15 -10 37 -26 53 -25 27
-45 32 -86 21z"/>
<path d="M1845 2120 c-4 -17 -5 -34 -2 -36 3 -3 8 9 12 26 4 17 5 34 2 36 -3
3 -8 -9 -12 -26z"/>
<path d="M605 2089 c-4 -6 -4 -13 -1 -16 3 -4 6 -1 6 5 0 19 28 14 40 -7 17
-32 12 -106 -8 -131 l-19 -23 -23 23 c-20 20 -22 30 -17 79 3 34 2 48 -3 36
-18 -42 -11 -95 15 -120 29 -30 37 -31 61 -4 23 25 26 127 5 153 -15 18 -47
21 -56 5z"/>
<path d="M1871 2084 c0 -11 3 -14 6 -6 3 7 2 16 -1 19 -3 4 -6 -2 -5 -13z"/>
<path d="M1830 2061 c0 -5 5 -13 10 -16 6 -3 10 -2 10 4 0 5 -4 13 -10 16 -5
3 -10 2 -10 -4z"/>
<path d="M2311 2039 c0 -9 6 -22 14 -29 10 -9 15 -9 15 -1 0 6 -4 11 -9 11 -5
0 -12 8 -14 18 -4 14 -5 14 -6 1z"/>
<path d="M641 1994 c0 -11 3 -14 6 -6 3 7 2 16 -1 19 -3 4 -6 -2 -5 -13z"/>
<path d="M800 2003 c0 -5 19 -9 43 -9 34 -2 37 0 17 6 -33 11 -60 12 -60 3z"/>
<path d="M908 1983 c7 -3 16 -2 19 1 4 3 -2 6 -13 5 -11 0 -14 -3 -6 -6z"/>
<path d="M1038 1973 c6 -2 18 -2 25 0 6 3 1 5 -13 5 -14 0 -19 -2 -12 -5z"/>
<path d="M1221 1954 c-36 -46 -51 -118 -49 -238 l1 -111 7 125 c7 128 18 169
60 223 12 15 17 27 11 27 -5 0 -19 -12 -30 -26z"/>
<path d="M2640 1975 c-8 -2 -32 -6 -53 -10 -52 -8 -111 -64 -131 -122 -9 -26
-14 -48 -12 -50 2 -3 12 18 21 46 9 28 20 53 23 55 4 2 22 -31 41 -75 37 -87
63 -111 30 -26 -48 117 -47 105 -14 131 38 31 123 42 198 26 62 -12 102 -35
77 -43 -8 -3 -22 -8 -30 -10 -8 -3 -2 -6 14 -6 24 -1 30 -15 8 -17 -21 -1
-129 -38 -140 -47 -11 -9 -13 -5 -10 18 2 22 11 31 38 42 32 12 32 13 5 7 -43
-8 -55 -22 -55 -61 0 -20 -4 -32 -10 -28 -5 3 -10 4 -10 2 0 -11 53 -134 62
-142 15 -14 1 39 -22 88 -11 22 -18 43 -15 47 2 4 42 17 87 30 96 27 108 34
108 65 0 25 -23 49 -61 63 -29 11 -127 22 -149 17z"/>
<path d="M2346 1945 c-3 -8 -1 -15 4 -15 6 0 10 7 10 15 0 8 -2 15 -4 15 -2 0
-6 -7 -10 -15z"/>
<path d="M2373 1875 c0 -22 2 -30 4 -17 2 12 2 30 0 40 -3 9 -5 -1 -4 -23z"/>
<path d="M571 1874 c0 -11 3 -14 6 -6 3 7 2 16 -1 19 -3 4 -6 -2 -5 -13z"/>
<path d="M1044 1872 c-15 -9 -49 -111 -40 -119 3 -3 12 9 19 28 8 19 18 43 22
54 8 20 15 45 12 45 -1 0 -7 -4 -13 -8z"/>
<path d="M2631 1864 c0 -11 3 -14 6 -6 3 7 2 16 -1 19 -3 4 -6 -2 -5 -13z"/>
<path d="M2345 1860 c-3 -5 -1 -10 4 -10 6 0 11 5 11 10 0 6 -2 10 -4 10 -3 0
-8 -4 -11 -10z"/>
<path d="M1371 1850 c0 -8 4 -22 9 -30 12 -18 12 -2 0 25 -6 13 -9 15 -9 5z"/>
<path d="M1510 1840 c-8 -5 -18 -6 -22 -4 -4 3 -6 -28 -4 -67 3 -52 9 -76 20
-85 22 -16 20 -34 -4 -34 -12 0 -34 -7 -49 -15 -16 -8 -31 -12 -33 -10 -10 10
-30 -74 -23 -92 8 -16 9 -15 12 7 2 14 7 32 10 40 3 8 5 18 5 22 -1 5 1 7 6 6
4 0 24 6 45 16 21 9 42 14 47 11 6 -4 10 4 10 17 0 13 6 30 13 37 6 7 8 12 2
11 -26 -5 -34 4 -40 51 -6 41 -4 54 11 70 19 21 16 33 -6 19z"/>
<path d="M2046 1824 c-9 -23 -8 -24 18 -24 13 0 27 6 29 13 3 7 6 5 6 -6 1
-10 -20 -40 -45 -67 -39 -42 -44 -51 -29 -56 12 -5 31 8 66 42 52 51 59 64 33
64 -12 0 -15 7 -12 23 4 19 0 22 -28 24 -21 2 -34 -2 -38 -13z"/>
<path d="M570 1797 c0 -20 3 -37 8 -37 9 0 8 57 -1 67 -4 3 -7 -10 -7 -30z"/>
<path d="M1361 1819 c-1 -4 8 -35 19 -70 21 -67 49 -123 50 -101 0 18 -68 186
-69 171z"/>
<path d="M663 1791 c0 -11 5 -18 9 -15 4 3 5 11 1 19 -7 21 -12 19 -10 -4z"/>
<path d="M1194 1618 c0 -68 5 -113 10 -108 14 14 15 162 1 195 -11 26 -13 15
-11 -87z"/>
<path d="M2831 1706 c-36 -12 -67 -28 -69 -34 -2 -7 -14 -12 -27 -12 -13 0
-26 -4 -30 -9 -3 -6 4 -8 16 -6 15 3 19 0 15 -10 -6 -16 25 -95 38 -95 4 0 38
23 74 52 58 45 64 48 47 21 -11 -16 -37 -45 -58 -63 -36 -31 -41 -33 -112 -31
-72 2 -75 1 -74 -21 1 -17 3 -18 6 -5 6 24 50 22 58 -2 6 -20 6 -20 26 0 20
20 39 25 39 10 0 -4 -11 -16 -24 -27 -14 -10 -23 -21 -21 -25 3 -4 -3 -13 -12
-20 -14 -12 -15 -11 -10 6 4 11 2 27 -4 35 -8 12 -9 11 -4 -6 4 -15 0 -24 -11
-28 -16 -6 -15 -8 2 -25 24 -23 40 -17 48 17 4 17 33 49 77 86 74 61 119 132
119 189 0 34 -19 34 -109 3z m70 -25 c-11 -21 -44 -59 -72 -84 l-52 -46 -14
26 c-7 14 -13 33 -13 42 0 24 46 65 64 58 9 -4 16 -2 16 3 0 6 7 10 15 10 19
0 9 -27 -24 -64 l-26 -30 35 28 c19 16 43 44 53 62 9 19 22 34 27 34 6 0 1
-18 -9 -39z"/>
<path d="M2513 1687 c-53 -31 -62 -48 -43 -77 8 -11 9 -8 4 13 -10 41 5 32 27
-18 14 -31 24 -42 34 -39 17 7 21 34 5 34 -17 0 -11 18 8 23 10 3 6 5 -11 6
-16 0 -26 5 -22 11 3 6 0 10 -7 10 -8 0 -7 5 4 17 14 13 22 14 40 5 l23 -11
-25 -1 c-23 -2 -23 -2 6 -11 30 -9 44 -39 17 -39 -7 0 -13 -7 -13 -15 0 -19
13 -19 50 0 20 10 30 23 30 38 0 18 -2 19 -10 7 -9 -13 -11 -13 -20 0 -5 8
-10 30 -10 48 0 41 -17 41 -87 -1z"/>
<path d="M2620 1715 c1 -6 7 -21 16 -35 l15 -25 -7 25 c-7 26 -24 52 -24 35z"/>
<path d="M958 1696 c-10 -7 -15 -16 -11 -20 4 -4 -5 -18 -20 -32 -33 -30 -35
-48 -5 -38 20 6 21 5 9 -9 -7 -9 -17 -15 -21 -12 -5 3 -11 -4 -15 -15 -3 -11
-11 -20 -18 -20 -8 0 -8 -3 0 -11 9 -9 18 -8 37 4 13 9 26 13 29 9 2 -4 3 -2
1 5 -1 6 8 42 21 80 14 37 25 69 25 71 0 6 -17 0 -32 -12z"/>
<path d="M551 1654 c0 -11 3 -14 6 -6 3 7 2 16 -1 19 -3 4 -6 -2 -5 -13z"/>
<path d="M1110 1642 c18 -14 22 -28 22 -72 -1 -48 -5 -58 -29 -78 -19 -15 -39
-22 -62 -20 -37 3 -43 14 -43 75 -1 48 8 61 46 68 40 8 67 -2 45 -16 -10 -6
-8 -9 9 -9 22 0 22 1 6 25 -13 20 -22 23 -42 18 -20 -5 -23 -3 -16 8 6 10 2
10 -16 -2 -67 -44 -58 -189 12 -189 34 0 85 29 97 56 27 60 1 153 -43 154 -4
0 2 -8 14 -18z"/>
<path d="M732 1625 c0 -16 2 -22 5 -12 2 9 2 23 0 30 -3 6 -5 -1 -5 -18z"/>
<path d="M1540 1644 c0 -5 11 -14 23 -20 18 -8 24 -8 24 3 0 7 -4 13 -8 13 -4
0 -14 3 -23 6 -9 3 -16 2 -16 -2z"/>
<path d="M1860 1639 c0 -6 5 -19 11 -30 10 -20 11 -20 30 -3 20 18 20 18 -3
31 -29 15 -38 16 -38 2z"/>
<path d="M2440 1625 c0 -31 39 -90 52 -77 7 7 7 16 -1 29 -11 16 -11 15 -7 -7
3 -14 -5 -2 -19 25 -15 30 -25 42 -25 30z"/>
<path d="M691 1614 c0 -11 3 -14 6 -6 3 7 2 16 -1 19 -3 4 -6 -2 -5 -13z"/>
<path d="M2218 1623 c7 -3 16 -2 19 1 4 3 -2 6 -13 5 -11 0 -14 -3 -6 -6z"/>
<path d="M1017 1586 c-7 -18 1 -26 27 -25 21 0 21 1 1 9 -17 7 -17 9 -2 9 9 1
17 6 17 11 0 15 -37 12 -43 -4z"/>
<path d="M1944 1585 c-14 -10 -15 -14 -5 -15 11 0 10 -4 -4 -14 -11 -8 -26
-11 -34 -8 -9 3 -12 1 -8 -6 7 -9 -50 -85 -91 -122 -9 -8 -33 -35 -52 -60 -19
-25 -53 -65 -75 -88 -50 -55 -68 -86 -29 -52 48 42 95 93 119 128 13 19 25 32
28 30 3 -2 9 1 14 6 5 5 3 6 -4 2 -7 -4 -13 -3 -13 2 0 12 25 33 32 27 3 -3
11 1 18 10 7 8 9 15 5 15 -4 0 3 9 16 20 13 10 21 19 17 20 -4 0 12 19 35 43
53 52 72 77 60 77 -5 0 -18 -7 -29 -15z"/>
<path d="M2633 1572 c4 -18 0 -25 -19 -32 -13 -5 -24 -12 -24 -14 0 -7 31 4
46 15 6 5 14 5 19 1 8 -7 -14 39 -23 48 -3 3 -2 -5 1 -18z"/>
<path d="M753 1540 c0 -25 2 -35 4 -22 2 12 2 32 0 45 -2 12 -4 2 -4 -23z"/>
<path d="M1100 1571 c0 -5 -3 -17 -7 -27 -6 -16 -5 -17 8 -4 17 15 21 40 7 40
-4 0 -8 -4 -8 -9z"/>
<path d="M610 1563 c0 -4 5 -15 10 -23 8 -13 10 -13 10 2 0 9 -4 20 -10 23 -5
3 -10 3 -10 -2z"/>
<path d="M1974 1528 l-29 -33 33 29 c30 28 37 36 29 36 -2 0 -16 -15 -33 -32z"/>
<path d="M692 1515 c0 -16 2 -22 5 -12 2 9 2 23 0 30 -3 6 -5 -1 -5 -18z"/>
<path d="M1048 1533 c7 -3 16 -2 19 1 4 3 -2 6 -13 5 -11 0 -14 -3 -6 -6z"/>
<path d="M2255 1510 c1 -17 6 -34 10 -38 5 -4 5 1 2 10 -4 12 0 16 16 16 12
-1 28 -6 35 -11 8 -7 12 -5 12 7 0 14 -5 17 -25 16 -3 -1 -13 6 -21 15 -23 23
-32 18 -29 -15z m30 0 c3 -6 -1 -7 -9 -4 -18 7 -21 14 -7 14 6 0 13 -4 16 -10z"/>
<path d="M521 1494 c0 -11 3 -14 6 -6 3 7 2 16 -1 19 -3 4 -6 -2 -5 -13z"/>
<path d="M771 1483 c0 -18 3 -33 9 -33 5 0 12 -15 16 -34 3 -19 12 -37 20 -40
8 -3 14 -12 14 -19 0 -8 9 -24 20 -37 12 -13 18 -30 15 -37 -2 -8 0 -11 5 -8
6 4 9 -10 8 -34 -1 -23 2 -44 5 -48 4 -3 7 16 7 44 0 34 -6 58 -19 74 -24 32
-84 147 -92 179 -6 23 -7 22 -8 -7z"/>
<path d="M2173 1494 c20 -11 32 -12 47 -4 11 6 20 13 20 16 0 2 -8 1 -17 -4
-10 -5 -27 -6 -38 -1 -34 13 -42 9 -12 -7z"/>
<path d="M2384 1491 c3 -5 16 -11 28 -14 22 -6 22 -5 4 8 -22 17 -40 20 -32 6z"/>
<path d="M1918 1463 c-18 -21 -31 -43 -25 -43 2 0 13 14 25 30 25 33 24 41 0
13z"/>
<path d="M2676 1471 c-4 -7 -5 -15 -2 -18 9 -9 19 4 14 18 -4 11 -6 11 -12 0z"/>
<path d="M741 1444 c0 -11 3 -14 6 -6 3 7 2 16 -1 19 -3 4 -6 -2 -5 -13z"/>
<path d="M2134 1446 c11 -9 24 -16 30 -16 12 0 7 5 -24 19 -24 11 -24 11 -6
-3z"/>
<path d="M656 1437 c3 -10 9 -15 12 -12 3 3 0 11 -7 18 -10 9 -11 8 -5 -6z"/>
<path d="M696 1437 c3 -10 9 -15 12 -12 3 3 0 11 -7 18 -10 9 -11 8 -5 -6z"/>
<path d="M2095 1421 c3 -5 -5 -17 -17 -25 -12 -9 -20 -18 -17 -20 3 -3 17 5
32 18 15 13 24 26 20 30 -10 9 -25 7 -18 -3z"/>
<path d="M581 1374 c0 -11 3 -14 6 -6 3 7 2 16 -1 19 -3 4 -6 -2 -5 -13z"/>
<path d="M771 1364 c0 -11 3 -14 6 -6 3 7 2 16 -1 19 -3 4 -6 -2 -5 -13z"/>
<path d="M1797 1333 c-4 -3 -7 -11 -7 -17 0 -6 5 -5 12 2 6 6 9 14 7 17 -3 3
-9 2 -12 -2z"/>
<path d="M622 1300 c0 -14 2 -19 5 -12 2 6 2 18 0 25 -3 6 -5 1 -5 -13z"/>
<path d="M2458 1313 c7 -3 16 -2 19 1 4 3 -2 6 -13 5 -11 0 -14 -3 -6 -6z"/>
<path d="M471 1294 c0 -11 3 -14 6 -6 3 7 2 16 -1 19 -3 4 -6 -2 -5 -13z"/>
<path d="M1756 1285 c-9 -14 -13 -25 -9 -25 10 0 36 40 30 46 -2 3 -12 -7 -21
-21z"/>
<path d="M1949 1288 c12 -11 25 -18 28 -15 9 9 -5 24 -28 30 l-21 6 21 -21z"/>
<path d="M1910 1280 c33 -26 50 -26 22 0 -12 11 -27 20 -34 20 -7 0 -2 -9 12
-20z"/>
<path d="M542 1265 c0 -16 2 -22 5 -12 2 9 2 23 0 30 -3 6 -5 -1 -5 -18z"/>
<path d="M431 1254 c0 -11 3 -14 6 -6 3 7 2 16 -1 19 -3 4 -6 -2 -5 -13z"/>
<path d="M900 1262 c0 -6 7 -17 15 -26 8 -8 15 -20 15 -26 0 -6 4 -9 9 -5 5 3
12 -5 14 -17 l4 -23 2 23 c0 12 -12 36 -29 54 -16 17 -30 26 -30 20z"/>
<path d="M1705 1230 c-10 -11 -13 -20 -7 -20 6 0 16 9 22 20 6 11 9 20 7 20
-2 0 -12 -9 -22 -20z"/>
<path d="M619 1212 c-3 -20 -2 -29 4 -23 5 5 7 19 5 32 -3 20 -5 19 -9 -9z"/>
<path d="M543 1175 c0 -33 2 -45 4 -27 2 18 2 45 0 60 -2 15 -4 0 -4 -33z"/>
<path d="M662 1210 c0 -14 2 -19 5 -12 2 6 2 18 0 25 -3 6 -5 1 -5 -13z"/>
<path d="M2638 1223 c7 -3 16 -2 19 1 4 3 -2 6 -13 5 -11 0 -14 -3 -6 -6z"/>
<path d="M473 1213 c-8 -3 -12 -20 -12 -41 2 -34 2 -35 6 -7 3 16 10 33 16 37
14 9 6 17 -10 11z"/>
<path d="M2393 1213 c15 -2 39 -2 55 0 15 2 2 4 -28 4 -30 0 -43 -2 -27 -4z"/>
<path d="M2578 1213 c6 -2 18 -2 25 0 6 3 1 5 -13 5 -14 0 -19 -2 -12 -5z"/>
<path d="M1495 1200 c3 -5 13 -10 21 -10 8 0 12 5 9 10 -3 6 -13 10 -21 10 -8
0 -12 -4 -9 -10z"/>
<path d="M2270 1206 c0 -8 51 -13 56 -5 3 5 -9 9 -25 9 -17 0 -31 -2 -31 -4z"/>
<path d="M2040 1193 c-14 -3 -29 -9 -35 -15 -7 -8 -6 -9 2 -4 7 4 38 7 70 8
43 1 51 3 33 9 -28 8 -35 8 -70 2z"/>
<path d="M2163 1193 c15 -2 37 -2 50 0 12 2 0 4 -28 4 -27 0 -38 -2 -22 -4z"/>
<path d="M2628 1193 c6 -2 18 -2 25 0 6 3 1 5 -13 5 -14 0 -19 -2 -12 -5z"/>
<path d="M523 1150 c0 -25 2 -35 4 -22 2 12 2 32 0 45 -2 12 -4 2 -4 -23z"/>
<path d="M801 1174 c0 -11 3 -14 6 -6 3 7 2 16 -1 19 -3 4 -6 -2 -5 -13z"/>
<path d="M1891 1186 c2 -2 27 -6 54 -10 36 -5 46 -4 35 3 -13 10 -99 16 -89 7z"/>
<path d="M2356 1175 c-3 -8 -1 -15 4 -15 6 0 10 7 10 15 0 8 -2 15 -4 15 -2 0
-6 -7 -10 -15z"/>
<path d="M2393 1183 c9 -2 23 -2 30 0 6 3 -1 5 -18 5 -16 0 -22 -2 -12 -5z"/>
<path d="M2440 1180 c0 -5 17 -10 38 -9 33 1 34 2 12 9 -36 11 -50 11 -50 0z"/>
<path d="M432 1160 c0 -14 2 -19 5 -12 2 6 2 18 0 25 -3 6 -5 1 -5 -13z"/>
<path d="M662 1155 c0 -16 2 -22 5 -12 2 9 2 23 0 30 -3 6 -5 -1 -5 -18z"/>
<path d="M1830 1176 c0 -2 13 -6 29 -8 17 -2 28 -1 25 4 -5 8 -54 12 -54 4z"/>
<path d="M2248 1173 c7 -3 16 -2 19 1 4 3 -2 6 -13 5 -11 0 -14 -3 -6 -6z"/>
<path d="M2292 1175 c10 -11 48 -14 48 -4 0 5 -12 9 -27 9 -14 0 -24 -2 -21
-5z"/>
<path d="M870 1151 c-5 -11 -9 -32 -9 -48 1 -25 2 -25 8 7 4 20 11 41 15 48 4
7 5 12 2 12 -3 0 -10 -9 -16 -19z"/>
<path d="M1768 1163 c12 -2 30 -2 40 0 9 3 -1 5 -23 4 -22 0 -30 -2 -17 -4z"/>
<path d="M2070 1160 l-35 -7 38 -2 c20 0 37 4 37 9 0 6 -1 9 -2 9 -2 -1 -19
-5 -38 -9z"/>
<path d="M2192 1165 c3 -4 21 -9 40 -12 43 -6 33 4 -12 12 -19 3 -32 3 -28 0z"/>
<path d="M2613 1163 c9 -2 23 -2 30 0 6 3 -1 5 -18 5 -16 0 -22 -2 -12 -5z"/>
<path d="M1605 1150 c-12 -5 11 -6 55 -3 41 3 77 7 79 9 9 8 -115 2 -134 -6z"/>
<path d="M2483 1153 c9 -2 25 -2 35 0 9 3 1 5 -18 5 -19 0 -27 -2 -17 -5z"/>
<path d="M587 1130 c-3 -11 -1 -20 4 -20 5 0 9 9 9 20 0 11 -2 20 -4 20 -2 0
-6 -9 -9 -20z"/>
<path d="M631 1134 c0 -11 3 -14 6 -6 3 7 2 16 -1 19 -3 4 -6 -2 -5 -13z"/>
<path d="M681 1134 c0 -11 3 -14 6 -6 3 7 2 16 -1 19 -3 4 -6 -2 -5 -13z"/>
<path d="M1528 1143 c12 -2 30 -2 40 0 9 3 -1 5 -23 4 -22 0 -30 -2 -17 -4z"/>
<path d="M1790 1139 c-42 -5 -34 -6 33 -4 49 2 91 5 94 8 6 7 -53 5 -127 -4z"/>
<path d="M2388 1143 c7 -3 16 -2 19 1 4 3 -2 6 -13 5 -11 0 -14 -3 -6 -6z"/>
<path d="M502 1120 c0 -14 2 -19 5 -12 2 6 2 18 0 25 -3 6 -5 1 -5 -13z"/>
<path d="M1159 1135 c-5 -37 -4 -65 4 -65 5 0 6 -7 3 -16 -3 -8 -2 -13 3 -10
5 3 11 17 13 31 3 15 1 22 -5 18 -6 -4 -8 0 -5 9 4 8 2 21 -3 29 -5 8 -9 10
-10 4z"/>
<path d="M1480 1130 c-9 -6 -10 -10 -3 -10 6 0 15 5 18 10 8 12 4 12 -15 0z"/>
<path d="M1635 1130 c3 -5 12 -7 20 -3 21 7 19 13 -6 13 -11 0 -18 -4 -14 -10z"/>
<path d="M2033 1133 c9 -2 23 -2 30 0 6 3 -1 5 -18 5 -16 0 -22 -2 -12 -5z"/>
<path d="M2458 1133 c7 -3 16 -2 19 1 4 3 -2 6 -13 5 -11 0 -14 -3 -6 -6z"/>
<path d="M2498 1133 c7 -3 16 -2 19 1 4 3 -2 6 -13 5 -11 0 -14 -3 -6 -6z"/>
<path d="M381 1114 c0 -11 3 -14 6 -6 3 7 2 16 -1 19 -3 4 -6 -2 -5 -13z"/>
<path d="M1353 1123 c9 -2 25 -2 35 0 9 3 1 5 -18 5 -19 0 -27 -2 -17 -5z"/>
<path d="M1928 1123 c12 -2 30 -2 40 0 9 3 -1 5 -23 4 -22 0 -30 -2 -17 -4z"/>
<path d="M2148 1123 c7 -3 16 -2 19 1 4 3 -2 6 -13 5 -11 0 -14 -3 -6 -6z"/>
<path d="M2336 1122 c-2 -4 13 -6 35 -4 21 2 39 6 39 8 0 7 -69 4 -74 -4z"/>
<path d="M2098 1113 c7 -3 16 -2 19 1 4 3 -2 6 -13 5 -11 0 -14 -3 -6 -6z"/>
<path d="M2228 1113 c7 -3 16 -2 19 1 4 3 -2 6 -13 5 -11 0 -14 -3 -6 -6z"/>
<path d="M1350 1100 c-12 -7 -10 -9 8 -7 12 0 22 5 22 9 0 11 -12 10 -30 -2z"/>
<path d="M1456 1102 c-2 -4 11 -6 30 -4 19 2 34 6 34 8 0 8 -59 4 -64 -4z"/>
<path d="M1748 1103 c12 -2 32 -2 45 0 12 2 2 4 -23 4 -25 0 -35 -2 -22 -4z"/>
<path d="M2010 1099 c25 -4 59 -7 75 -7 22 0 18 3 -15 9 -25 4 -58 7 -75 7
-22 0 -18 -3 15 -9z"/>
<path d="M2138 1103 c6 -2 18 -2 25 0 6 3 1 5 -13 5 -14 0 -19 -2 -12 -5z"/>
<path d="M2575 1100 c4 -6 11 -8 16 -5 14 9 11 15 -7 15 -8 0 -12 -5 -9 -10z"/>
<path d="M662 1080 c0 -14 2 -19 5 -12 2 6 2 18 0 25 -3 6 -5 1 -5 -13z"/>
<path d="M700 1091 c0 -6 4 -13 10 -16 6 -3 7 1 4 9 -7 18 -14 21 -14 7z"/>
<path d="M1398 1093 c7 -3 16 -2 19 1 4 3 -2 6 -13 5 -11 0 -14 -3 -6 -6z"/>
<path d="M1628 1093 c12 -2 32 -2 45 0 12 2 2 4 -23 4 -25 0 -35 -2 -22 -4z"/>
<path d="M1915 1089 c22 -4 54 -8 70 -7 22 0 19 3 -15 9 -60 10 -108 9 -55 -2z"/>
<path d="M2398 1093 c7 -3 16 -2 19 1 4 3 -2 6 -13 5 -11 0 -14 -3 -6 -6z"/>
<path d="M2438 1093 c7 -3 16 -2 19 1 4 3 -2 6 -13 5 -11 0 -14 -3 -6 -6z"/>
<path d="M381 1074 c0 -11 3 -14 6 -6 3 7 2 16 -1 19 -3 4 -6 -2 -5 -13z"/>
<path d="M632 1070 c0 -14 2 -19 5 -12 2 6 2 18 0 25 -3 6 -5 1 -5 -13z"/>
<path d="M802 1055 c-1 -20 -3 -39 -5 -43 -3 -4 -1 -16 3 -27 5 -14 8 -8 8 22
0 24 3 46 6 51 2 4 1 14 -3 20 -5 8 -8 -2 -9 -23z"/>
<path d="M1725 1080 c-36 -5 -20 -6 57 -6 58 1 101 4 95 8 -14 9 -80 8 -152
-2z"/>
<path d="M2288 1083 c7 -3 16 -2 19 1 4 3 -2 6 -13 5 -11 0 -14 -3 -6 -6z"/>
<path d="M351 1064 c0 -11 3 -14 6 -6 3 7 2 16 -1 19 -3 4 -6 -2 -5 -13z"/>
<path d="M931 1064 c0 -11 3 -14 6 -6 3 7 2 16 -1 19 -3 4 -6 -2 -5 -13z"/>
<path d="M1428 1073 c12 -2 32 -2 45 0 12 2 2 4 -23 4 -25 0 -35 -2 -22 -4z"/>
<path d="M1590 1070 l-55 -7 63 -1 c36 -1 62 2 62 8 0 6 -3 9 -7 8 -5 -1 -33
-4 -63 -8z"/>
<path d="M2188 1073 c7 -3 16 -2 19 1 4 3 -2 6 -13 5 -11 0 -14 -3 -6 -6z"/>
<path d="M861 1054 c0 -11 3 -14 6 -6 3 7 2 16 -1 19 -3 4 -6 -2 -5 -13z"/>
<path d="M1348 1063 c12 -2 30 -2 40 0 9 3 -1 5 -23 4 -22 0 -30 -2 -17 -4z"/>
<path d="M423 1033 c-1 -24 -1 -25 7 -8 11 26 12 35 2 35 -4 0 -8 -12 -9 -27z"/>
<path d="M1473 1053 c9 -2 23 -2 30 0 6 3 -1 5 -18 5 -16 0 -22 -2 -12 -5z"/>
<path d="M1727 1049 c7 -7 15 -10 18 -7 3 3 -2 9 -12 12 -14 6 -15 5 -6 -5z"/>
<path d="M1838 1053 c6 -2 18 -2 25 0 6 3 1 5 -13 5 -14 0 -19 -2 -12 -5z"/>
<path d="M1888 1053 c6 -2 18 -2 25 0 6 3 1 5 -13 5 -14 0 -19 -2 -12 -5z"/>
<path d="M2128 1053 c12 -2 30 -2 40 0 9 3 -1 5 -23 4 -22 0 -30 -2 -17 -4z"/>
<path d="M1573 1043 c15 -2 37 -2 50 0 12 2 0 4 -28 4 -27 0 -38 -2 -22 -4z"/>
<path d="M2023 1043 c15 -2 39 -2 55 0 15 2 2 4 -28 4 -30 0 -43 -2 -27 -4z"/>
<path d="M2568 1043 c12 -2 32 -2 45 0 12 2 2 4 -23 4 -25 0 -35 -2 -22 -4z"/>
<path d="M1453 1033 c9 -2 25 -2 35 0 9 3 1 5 -18 5 -19 0 -27 -2 -17 -5z"/>
<path d="M1890 1030 c20 -13 33 -13 25 0 -3 6 -14 10 -23 10 -15 0 -15 -2 -2
-10z"/>
<path d="M1943 1033 c9 -2 25 -2 35 0 9 3 1 5 -18 5 -19 0 -27 -2 -17 -5z"/>
<path d="M2448 1033 c12 -2 30 -2 40 0 9 3 -1 5 -23 4 -22 0 -30 -2 -17 -4z"/>
<path d="M1158 1023 c7 -3 16 -2 19 1 4 3 -2 6 -13 5 -11 0 -14 -3 -6 -6z"/>
<path d="M1738 1021 c17 -10 99 -13 105 -4 3 4 -22 9 -56 10 -33 1 -55 -2 -49
-6z"/>
<path d="M2090 1026 c0 -2 9 -6 20 -9 11 -3 18 -1 14 4 -5 9 -34 13 -34 5z"/>
<path d="M2343 1023 c9 -2 25 -2 35 0 9 3 1 5 -18 5 -19 0 -27 -2 -17 -5z"/>
<path d="M922 1000 c0 -14 2 -19 5 -12 2 6 2 18 0 25 -3 6 -5 1 -5 -13z"/>
<path d="M1673 1005 c0 -6 14 -9 34 -7 39 5 36 14 -5 17 -16 1 -29 -3 -29 -10z"/>
<path d="M2008 1015 c-4 -4 -129 -18 -151 -17 -9 0 -15 -3 -12 -9 4 -5 21 -6
38 -3 46 8 118 15 145 15 13 -1 31 3 40 8 12 7 6 9 -20 9 -20 0 -38 -1 -40 -3z"/>
<path d="M2597 1009 c7 -7 15 -10 18 -7 3 3 -2 9 -12 12 -14 6 -15 5 -6 -5z"/>
<path d="M1565 1000 c-4 -6 3 -10 14 -10 25 0 27 6 6 13 -8 4 -17 2 -20 -3z"/>
<path d="M2148 1003 c7 -3 16 -2 19 1 4 3 -2 6 -13 5 -11 0 -14 -3 -6 -6z"/>
<path d="M420 962 c0 -23 4 -42 9 -42 8 0 4 70 -4 79 -3 2 -5 -14 -5 -37z"/>
<path d="M522 980 c0 -14 2 -19 5 -12 2 6 2 18 0 25 -3 6 -5 1 -5 -13z"/>
<path d="M632 970 c0 -19 2 -27 5 -17 2 9 2 25 0 35 -3 9 -5 1 -5 -18z"/>
<path d="M1370 986 c0 -2 9 -6 20 -9 11 -3 20 -1 20 4 0 5 -9 9 -20 9 -11 0
-20 -2 -20 -4z"/>
<path d="M1427 979 c7 -7 15 -10 18 -7 3 3 -2 9 -12 12 -14 6 -15 5 -6 -5z"/>
<path d="M352 955 c0 -16 2 -22 5 -12 2 9 2 23 0 30 -3 6 -5 -1 -5 -18z"/>
<path d="M481 964 c0 -11 3 -14 6 -6 3 7 2 16 -1 19 -3 4 -6 -2 -5 -13z"/>
<path d="M587 973 c-4 -3 -7 -18 -7 -31 0 -31 7 -26 14 11 5 28 4 31 -7 20z"/>
<path d="M1658 973 c7 -3 16 -2 19 1 4 3 -2 6 -13 5 -11 0 -14 -3 -6 -6z"/>
<path d="M2084 966 c11 -9 24 -16 30 -16 12 0 7 5 -24 19 -24 11 -24 11 -6 -3z"/>
<path d="M1533 963 c9 -2 23 -2 30 0 6 3 -1 5 -18 5 -16 0 -22 -2 -12 -5z"/>
<path d="M1858 963 c7 -3 16 -2 19 1 4 3 -2 6 -13 5 -11 0 -14 -3 -6 -6z"/>
<path d="M1986 954 c-5 -14 -4 -15 9 -4 12 10 18 10 30 0 9 -7 15 -8 15 -2 0
9 -22 22 -40 22 -4 0 -11 -7 -14 -16z"/>
<path d="M2178 963 c7 -3 16 -2 19 1 4 3 -2 6 -13 5 -11 0 -14 -3 -6 -6z"/>
<path d="M2405 960 c-8 -13 5 -13 25 0 13 8 13 10 -2 10 -9 0 -20 -4 -23 -10z"/>
<path d="M2498 963 c6 -2 18 -2 25 0 6 3 1 5 -13 5 -14 0 -19 -2 -12 -5z"/>
<path d="M1891 956 c2 -2 22 -6 44 -10 29 -5 36 -4 25 3 -13 10 -79 16 -69 7z"/>
<path d="M681 888 c0 -38 2 -68 7 -68 4 0 6 21 4 48 -5 82 -9 89 -11 20z"/>
<path d="M1830 946 c0 -2 11 -6 25 -8 14 -3 25 -1 25 3 0 5 -11 9 -25 9 -14 0
-25 -2 -25 -4z"/>
<path d="M1458 933 c7 -3 16 -2 19 1 4 3 -2 6 -13 5 -11 0 -14 -3 -6 -6z"/>
<path d="M1578 933 c7 -3 16 -2 19 1 4 3 -2 6 -13 5 -11 0 -14 -3 -6 -6z"/>
<path d="M1775 930 c11 -5 34 -8 50 -8 l30 0 -30 8 c-16 4 -39 8 -50 8 -20 1
-20 1 0 -8z"/>
<path d="M1898 933 c7 -3 16 -2 19 1 4 3 -2 6 -13 5 -11 0 -14 -3 -6 -6z"/>
<path d="M2190 930 c-9 -6 -10 -10 -3 -10 6 0 15 5 18 10 8 12 4 12 -15 0z"/>
<path d="M1045 844 c4 -49 9 -91 11 -93 2 -3 3 35 3 83 -1 47 -6 89 -11 92 -6
4 -7 -28 -3 -82z"/>
<path d="M1663 923 c9 -2 25 -2 35 0 9 3 1 5 -18 5 -19 0 -27 -2 -17 -5z"/>
<path d="M352 900 c0 -14 2 -19 5 -12 2 6 2 18 0 25 -3 6 -5 1 -5 -13z"/>
<path d="M762 895 c0 -16 2 -22 5 -12 2 9 2 23 0 30 -3 6 -5 -1 -5 -18z"/>
<path d="M1001 904 c0 -11 3 -14 6 -6 3 7 2 16 -1 19 -3 4 -6 -2 -5 -13z"/>
<path d="M1072 900 c0 -14 2 -19 5 -12 2 6 2 18 0 25 -3 6 -5 1 -5 -13z"/>
<path d="M1178 913 c7 -3 16 -2 19 1 4 3 -2 6 -13 5 -11 0 -14 -3 -6 -6z"/>
<path d="M1438 913 c7 -3 16 -2 19 1 4 3 -2 6 -13 5 -11 0 -14 -3 -6 -6z"/>
<path d="M1578 913 c12 -2 30 -2 40 0 9 3 -1 5 -23 4 -22 0 -30 -2 -17 -4z"/>
<path d="M1745 910 c11 -5 29 -8 40 -8 16 0 15 2 -5 8 -34 11 -60 11 -35 0z"/>
<path d="M1368 903 c7 -3 16 -2 19 1 4 3 -2 6 -13 5 -11 0 -14 -3 -6 -6z"/>
<path d="M1490 906 c0 -2 13 -6 29 -8 17 -2 28 -1 25 4 -5 8 -54 12 -54 4z"/>
<path d="M2518 903 c7 -3 16 -2 19 1 4 3 -2 6 -13 5 -11 0 -14 -3 -6 -6z"/>
<path d="M1838 893 c7 -3 16 -2 19 1 4 3 -2 6 -13 5 -11 0 -14 -3 -6 -6z"/>
<path d="M1928 893 c7 -3 16 -2 19 1 4 3 -2 6 -13 5 -11 0 -14 -3 -6 -6z"/>
<path d="M1218 883 c6 -2 18 -2 25 0 6 3 1 5 -13 5 -14 0 -19 -2 -12 -5z"/>
<path d="M1361 886 c12 -10 60 -16 54 -6 -3 5 -18 10 -32 10 -15 0 -24 -2 -22
-4z"/>
<path d="M1998 883 c7 -3 16 -2 19 1 4 3 -2 6 -13 5 -11 0 -14 -3 -6 -6z"/>
<path d="M2155 880 c-3 -5 1 -10 10 -10 9 0 13 5 10 10 -3 6 -8 10 -10 10 -2
0 -7 -4 -10 -10z"/>
<path d="M2608 883 c7 -3 16 -2 19 1 4 3 -2 6 -13 5 -11 0 -14 -3 -6 -6z"/>
<path d="M592 855 c0 -16 2 -22 5 -12 2 9 2 23 0 30 -3 6 -5 -1 -5 -18z"/>
<path d="M871 864 c0 -11 3 -14 6 -6 3 7 2 16 -1 19 -3 4 -6 -2 -5 -13z"/>
<path d="M1148 873 c12 -2 30 -2 40 0 9 3 -1 5 -23 4 -22 0 -30 -2 -17 -4z"/>
<path d="M1673 873 c9 -2 23 -2 30 0 6 3 -1 5 -18 5 -16 0 -22 -2 -12 -5z"/>
<path d="M1886 868 c3 -5 10 -6 15 -3 13 9 11 12 -6 12 -8 0 -12 -4 -9 -9z"/>
<path d="M1933 873 c9 -2 23 -2 30 0 6 3 -1 5 -18 5 -16 0 -22 -2 -12 -5z"/>
<path d="M2538 873 c7 -3 16 -2 19 1 4 3 -2 6 -13 5 -11 0 -14 -3 -6 -6z"/>
<path d="M352 845 c0 -16 2 -22 5 -12 2 9 2 23 0 30 -3 6 -5 -1 -5 -18z"/>
<path d="M954 856 c-3 -8 -4 -27 -2 -43 3 -23 5 -20 9 15 5 43 2 53 -7 28z"/>
<path d="M986 855 c-3 -9 -6 -22 -5 -28 0 -7 5 -1 10 12 5 13 8 26 5 28 -2 2
-6 -3 -10 -12z"/>
<path d="M1102 832 c0 -21 -2 -42 -3 -48 -1 -5 -1 -22 0 -39 1 -22 4 -26 10
-15 6 8 7 18 4 24 -3 5 2 15 12 23 17 12 17 13 1 13 -14 0 -16 7 -12 40 2 22
1 40 -4 40 -4 0 -8 -17 -8 -38z"/>
<path d="M1470 860 c8 -5 26 -10 39 -10 32 0 24 6 -19 14 -25 4 -31 3 -20 -4z"/>
<path d="M1563 863 c9 -2 25 -2 35 0 9 3 1 5 -18 5 -19 0 -27 -2 -17 -5z"/>
<path d="M1765 860 c-30 -8 -30 -8 8 -9 23 -1 36 3 32 9 -3 6 -7 9 -8 9 -1 -1
-15 -5 -32 -9z"/>
<path d="M1838 863 c6 -2 18 -2 25 0 6 3 1 5 -13 5 -14 0 -19 -2 -12 -5z"/>
<path d="M2278 863 c7 -3 16 -2 19 1 4 3 -2 6 -13 5 -11 0 -14 -3 -6 -6z"/>
<path d="M2463 863 c9 -2 23 -2 30 0 6 3 -1 5 -18 5 -16 0 -22 -2 -12 -5z"/>
<path d="M431 844 c0 -11 3 -14 6 -6 3 7 2 16 -1 19 -3 4 -6 -2 -5 -13z"/>
<path d="M1273 853 c9 -2 23 -2 30 0 6 3 -1 5 -18 5 -16 0 -22 -2 -12 -5z"/>
<path d="M1193 843 c9 -2 23 -2 30 0 6 3 -1 5 -18 5 -16 0 -22 -2 -12 -5z"/>
<path d="M1328 843 c7 -3 16 -2 19 1 4 3 -2 6 -13 5 -11 0 -14 -3 -6 -6z"/>
<path d="M1430 846 c0 -2 11 -6 25 -8 13 -3 22 -1 19 3 -5 9 -44 13 -44 5z"/>
<path d="M2068 843 c7 -3 16 -2 19 1 4 3 -2 6 -13 5 -11 0 -14 -3 -6 -6z"/>
<path d="M2458 843 c7 -3 16 -2 19 1 4 3 -2 6 -13 5 -11 0 -14 -3 -6 -6z"/>
<path d="M503 805 c0 -22 2 -30 4 -17 2 12 2 30 0 40 -3 9 -5 -1 -4 -23z"/>
<path d="M633 825 c-3 -9 -3 -18 -1 -21 3 -3 8 4 11 16 6 23 -1 27 -10 5z"/>
<path d="M738 789 c-1 -28 0 -56 4 -62 4 -7 8 16 8 51 0 75 -7 82 -12 11z"/>
<path d="M1138 833 c7 -3 16 -2 19 1 4 3 -2 6 -13 5 -11 0 -14 -3 -6 -6z"/>
<path d="M1373 833 c9 -2 23 -2 30 0 6 3 -1 5 -18 5 -16 0 -22 -2 -12 -5z"/>
<path d="M2145 830 c-16 -7 -17 -9 -3 -9 9 -1 20 4 23 9 7 11 7 11 -20 0z"/>
<path d="M2360 830 c-8 -5 -10 -10 -5 -10 6 0 17 5 25 10 8 5 11 10 5 10 -5 0
-17 -5 -25 -10z"/>
<path d="M523 795 c0 -22 2 -30 4 -17 2 12 2 30 0 40 -3 9 -5 -1 -4 -23z"/>
<path d="M543 795 c0 -22 2 -30 4 -17 2 12 2 30 0 40 -3 9 -5 -1 -4 -23z"/>
<path d="M1280 815 c-10 -12 -9 -15 4 -15 10 0 15 4 11 9 -3 5 9 12 27 14 l33
4 -31 1 c-18 1 -37 -5 -44 -13z"/>
<path d="M1728 823 c6 -2 18 -2 25 0 6 3 1 5 -13 5 -14 0 -19 -2 -12 -5z"/>
<path d="M1830 820 c-9 -6 -10 -10 -3 -10 6 0 15 5 18 10 8 12 4 12 -15 0z"/>
<path d="M1898 823 c6 -2 18 -2 25 0 6 3 1 5 -13 5 -14 0 -19 -2 -12 -5z"/>
<path d="M2073 823 c9 -2 23 -2 30 0 6 3 -1 5 -18 5 -16 0 -22 -2 -12 -5z"/>
<path d="M427 800 c-3 -11 -1 -20 4 -20 5 0 9 9 9 20 0 11 -2 20 -4 20 -2 0
-6 -9 -9 -20z"/>
<path d="M763 770 c0 -30 2 -43 4 -27 2 15 2 39 0 55 -2 15 -4 2 -4 -28z"/>
<path d="M1006 803 c-6 -14 -5 -15 5 -6 7 7 10 15 7 18 -3 3 -9 -2 -12 -12z"/>
<path d="M1656 808 c3 -4 11 -5 19 -1 21 7 19 12 -4 10 -11 0 -18 -5 -15 -9z"/>
<path d="M1990 811 c-8 -6 -18 -7 -24 -4 -5 3 -6 1 -2 -5 5 -9 13 -9 27 -2 10
6 19 13 19 15 0 7 -3 6 -20 -4z"/>
<path d="M2170 810 c-8 -5 -12 -11 -10 -14 3 -2 14 2 24 10 22 15 10 19 -14 4z"/>
<path d="M352 790 c0 -14 2 -19 5 -12 2 6 2 18 0 25 -3 6 -5 1 -5 -13z"/>
<path d="M861 794 c0 -11 3 -14 6 -6 3 7 2 16 -1 19 -3 4 -6 -2 -5 -13z"/>
<path d="M1417 799 c7 -7 15 -10 18 -7 3 3 -2 9 -12 12 -14 6 -15 5 -6 -5z"/>
<path d="M1775 799 c4 -5 15 -9 26 -9 10 0 19 -5 19 -10 0 -6 16 -8 43 -4 59
9 81 23 26 17 -25 -3 -61 0 -82 5 -21 6 -35 6 -32 1z"/>
<path d="M2538 803 c7 -3 16 -2 19 1 4 3 -2 6 -13 5 -11 0 -14 -3 -6 -6z"/>
<path d="M583 765 c0 -22 2 -30 4 -17 2 12 2 30 0 40 -3 9 -5 -1 -4 -23z"/>
<path d="M972 780 c0 -14 2 -19 5 -12 2 6 2 18 0 25 -3 6 -5 1 -5 -13z"/>
<path d="M2244 784 c-18 -14 -18 -14 6 -3 31 14 36 19 24 19 -6 0 -19 -7 -30
-16z"/>
<path d="M2500 796 c0 -2 7 -7 16 -10 8 -3 12 -2 9 4 -6 10 -25 14 -25 6z"/>
<path d="M561 774 c0 -11 3 -14 6 -6 3 7 2 16 -1 19 -3 4 -6 -2 -5 -13z"/>
<path d="M2415 780 c26 -11 35 -12 35 -2 0 4 -12 8 -27 9 -24 1 -25 1 -8 -7z"/>
<path d="M680 715 c0 -38 3 -66 6 -62 7 7 7 117 -1 125 -3 3 -5 -25 -5 -63z"/>
<path d="M1760 770 c19 -13 30 -13 30 0 0 6 -10 10 -22 10 -19 0 -20 -2 -8
-10z"/>
<path d="M1966 771 c-4 -5 3 -7 14 -4 23 6 26 13 6 13 -8 0 -17 -4 -20 -9z"/>
<path d="M2168 773 c7 -3 16 -2 19 1 4 3 -2 6 -13 5 -11 0 -14 -3 -6 -6z"/>
<path d="M2351 776 c2 -2 18 -6 34 -10 22 -5 26 -4 15 4 -14 9 -59 15 -49 6z"/>
<path d="M428 764 c-7 -6 1 -236 8 -243 2 -2 4 53 4 122 0 70 -1 127 -3 127
-2 0 -6 -3 -9 -6z"/>
<path d="M991 754 c0 -11 3 -14 6 -6 3 7 2 16 -1 19 -3 4 -6 -2 -5 -13z"/>
<path d="M1345 760 c3 -5 8 -10 11 -10 2 0 4 5 4 10 0 6 -5 10 -11 10 -5 0 -7
-4 -4 -10z"/>
<path d="M1660 760 c10 -6 11 -10 3 -10 -7 0 -13 -5 -13 -12 0 -7 7 -5 18 5
10 9 27 14 39 11 11 -3 23 -2 26 4 4 5 -15 9 -41 10 -34 1 -43 -1 -32 -8z"/>
<path d="M2098 763 c7 -3 16 -2 19 1 4 3 -2 6 -13 5 -11 0 -14 -3 -6 -6z"/>
<path d="M2285 760 c-3 -5 -2 -10 4 -10 5 0 13 5 16 10 3 6 2 10 -4 10 -5 0
-13 -4 -16 -10z"/>
<path d="M353 695 c0 -38 2 -53 4 -32 2 20 2 52 0 70 -2 17 -4 1 -4 -38z"/>
<path d="M662 740 c0 -14 2 -19 5 -12 2 6 2 18 0 25 -3 6 -5 1 -5 -13z"/>
<path d="M1580 756 c0 -2 7 -9 15 -16 13 -11 14 -10 9 4 -5 14 -24 23 -24 12z"/>
<path d="M2215 753 c-16 -3 -34 -8 -38 -13 -5 -4 10 -4 32 0 25 4 45 3 52 -4
9 -8 9 -6 0 7 -7 9 -14 16 -15 16 0 -1 -14 -4 -31 -6z"/>
<path d="M945 739 c-4 -6 -5 -12 -2 -15 2 -3 7 2 10 11 7 17 1 20 -8 4z"/>
<path d="M782 720 c0 -14 2 -19 5 -12 2 6 2 18 0 25 -3 6 -5 1 -5 -13z"/>
<path d="M1288 733 c7 -3 16 -2 19 1 4 3 -2 6 -13 5 -11 0 -14 -3 -6 -6z"/>
<path d="M1470 724 l-25 -15 25 7 c14 4 33 8 43 8 9 0 17 4 17 8 0 13 -33 8
-60 -8z"/>
<path d="M1893 733 c15 -2 37 -2 50 0 12 2 0 4 -28 4 -27 0 -38 -2 -22 -4z"/>
<path d="M2060 730 c-12 -8 -12 -10 -1 -10 11 0 11 -3 1 -15 -10 -12 -10 -15
3 -15 9 0 14 7 13 18 -2 9 2 20 8 24 6 5 7 8 1 8 -5 0 -17 -5 -25 -10z"/>
<path d="M1062 705 c0 -16 2 -22 5 -12 2 9 2 23 0 30 -3 6 -5 -1 -5 -18z"/>
<path d="M1180 720 c-25 -4 -39 -8 -32 -8 7 -1 10 -7 6 -14 -5 -8 -3 -8 7 -2
8 5 37 14 64 20 55 13 27 15 -45 4z"/>
<path d="M1808 723 c7 -3 16 -2 19 1 4 3 -2 6 -13 5 -11 0 -14 -3 -6 -6z"/>
<path d="M1358 713 c6 -2 18 -2 25 0 6 3 1 5 -13 5 -14 0 -19 -2 -12 -5z"/>
<path d="M1668 713 c6 -2 18 -2 25 0 6 3 1 5 -13 5 -14 0 -19 -2 -12 -5z"/>
<path d="M2178 713 c7 -3 16 -2 19 1 4 3 -2 6 -13 5 -11 0 -14 -3 -6 -6z"/>
<path d="M662 690 c0 -14 2 -19 5 -12 2 6 2 18 0 25 -3 6 -5 1 -5 -13z"/>
<path d="M762 680 c0 -19 2 -27 5 -17 2 9 2 25 0 35 -3 9 -5 1 -5 -18z"/>
<path d="M1510 700 c-18 -12 -2 -12 25 0 13 6 15 9 5 9 -8 0 -22 -4 -30 -9z"/>
<path d="M1843 703 c9 -2 23 -2 30 0 6 3 -1 5 -18 5 -16 0 -22 -2 -12 -5z"/>
<path d="M1970 700 c-8 -5 -10 -10 -5 -10 6 0 17 5 25 10 8 5 11 10 5 10 -5 0
-17 -5 -25 -10z"/>
<path d="M2018 703 c7 -3 16 -2 19 1 4 3 -2 6 -13 5 -11 0 -14 -3 -6 -6z"/>
<path d="M2103 703 c9 -2 23 -2 30 0 6 3 -1 5 -18 5 -16 0 -22 -2 -12 -5z"/>
<path d="M2330 700 c0 -5 5 -10 11 -10 5 0 7 5 4 10 -3 6 -8 10 -11 10 -2 0
-4 -4 -4 -10z"/>
<path d="M2428 703 c7 -3 16 -2 19 1 4 3 -2 6 -13 5 -11 0 -14 -3 -6 -6z"/>
<path d="M2486 701 c-3 -4 6 -6 19 -3 14 2 25 6 25 8 0 8 -39 4 -44 -5z"/>
<path d="M561 684 c0 -11 3 -14 6 -6 3 7 2 16 -1 19 -3 4 -6 -2 -5 -13z"/>
<path d="M961 684 c0 -11 3 -14 6 -6 3 7 2 16 -1 19 -3 4 -6 -2 -5 -13z"/>
<path d="M1041 666 c-1 -26 2 -37 9 -30 6 6 6 21 1 39 -9 30 -9 30 -10 -9z"/>
<path d="M1920 690 c-13 -8 -13 -10 2 -10 9 0 20 5 23 10 8 13 -5 13 -25 0z"/>
<path d="M2158 693 c7 -3 16 -2 19 1 4 3 -2 6 -13 5 -11 0 -14 -3 -6 -6z"/>
<path d="M2620 690 c-8 -5 -10 -10 -5 -10 6 0 17 5 25 10 8 5 11 10 5 10 -5 0
-17 -5 -25 -10z"/>
<path d="M471 674 c0 -11 3 -14 6 -6 3 7 2 16 -1 19 -3 4 -6 -2 -5 -13z"/>
<path d="M522 670 c0 -14 2 -19 5 -12 2 6 2 18 0 25 -3 6 -5 1 -5 -13z"/>
<path d="M781 653 c2 -23 6 -40 10 -38 8 6 4 63 -5 72 -4 4 -6 -11 -5 -34z"/>
<path d="M861 653 c0 -29 2 -33 8 -18 7 18 4 55 -5 55 -2 0 -4 -17 -3 -37z"/>
<path d="M1100 657 c0 -20 4 -38 8 -41 9 -5 6 63 -3 72 -3 3 -5 -11 -5 -31z"/>
<path d="M1618 683 c7 -3 16 -2 19 1 4 3 -2 6 -13 5 -11 0 -14 -3 -6 -6z"/>
<path d="M1868 683 c7 -3 16 -2 19 1 4 3 -2 6 -13 5 -11 0 -14 -3 -6 -6z"/>
<path d="M1553 673 c9 -2 23 -2 30 0 6 3 -1 5 -18 5 -16 0 -22 -2 -12 -5z"/>
<path d="M2148 673 c7 -3 16 -2 19 1 4 3 -2 6 -13 5 -11 0 -14 -3 -6 -6z"/>
<path d="M2205 670 c3 -5 8 -10 11 -10 2 0 4 5 4 10 0 6 -5 10 -11 10 -5 0 -7
-4 -4 -10z"/>
<path d="M1968 663 c7 -3 16 -2 19 1 4 3 -2 6 -13 5 -11 0 -14 -3 -6 -6z"/>
<path d="M2391 659 c-24 -5 -47 -11 -50 -15 -7 -8 77 6 104 17 26 10 3 9 -54
-2z"/>
<path d="M662 640 c0 -14 2 -19 5 -12 2 6 2 18 0 25 -3 6 -5 1 -5 -13z"/>
<path d="M942 640 c0 -14 2 -19 5 -12 2 6 2 18 0 25 -3 6 -5 1 -5 -13z"/>
<path d="M981 644 c0 -11 3 -14 6 -6 3 7 2 16 -1 19 -3 4 -6 -2 -5 -13z"/>
<path d="M1526 647 c3 -10 9 -15 12 -12 3 3 0 11 -7 18 -10 9 -11 8 -5 -6z"/>
<path d="M1708 653 c6 -2 18 -2 25 0 6 3 1 5 -13 5 -14 0 -19 -2 -12 -5z"/>
<path d="M2110 650 c-9 -6 -10 -10 -3 -10 6 0 15 5 18 10 8 12 4 12 -15 0z"/>
<path d="M2582 650 c-12 -5 -30 -7 -40 -4 -16 5 -16 5 0 -5 16 -11 68 0 68 14
0 6 1 6 -28 -5z"/>
<path d="M585 639 c-4 -6 -5 -12 -2 -15 2 -3 7 2 10 11 7 17 1 20 -8 4z"/>
<path d="M1300 640 c0 -5 5 -10 11 -10 5 0 7 5 4 10 -3 6 -8 10 -11 10 -2 0
-4 -4 -4 -10z"/>
<path d="M1374 641 c3 -5 15 -7 26 -4 28 7 25 13 -6 13 -14 0 -23 -4 -20 -9z"/>
<path d="M1660 640 c0 -5 7 -7 15 -4 8 4 15 8 15 10 0 2 -7 4 -15 4 -8 0 -15
-4 -15 -10z"/>
<path d="M2245 640 c-19 -8 -19 -9 3 -9 12 -1 22 4 22 9 0 6 -1 10 -2 9 -2 0
-12 -4 -23 -9z"/>
<path d="M2290 640 c20 -13 33 -13 25 0 -3 6 -14 10 -23 10 -15 0 -15 -2 -2
-10z"/>
<path d="M684 550 c0 -52 1 -74 3 -47 2 26 2 68 0 95 -2 26 -3 4 -3 -48z"/>
<path d="M1600 633 c-37 -7 -46 -20 -10 -15 17 2 33 8 36 13 3 5 4 8 2 8 -2
-1 -14 -4 -28 -6z"/>
<path d="M2000 635 c0 -7 30 -13 34 -7 3 4 -4 9 -15 9 -10 1 -19 0 -19 -2z"/>
<path d="M2180 623 c0 -11 5 -11 20 -3 11 6 20 12 20 13 0 2 -9 3 -20 3 -11 0
-20 -6 -20 -13z"/>
<path d="M2445 625 c-39 -14 -40 -14 -5 -8 41 7 82 22 60 22 -8 0 -33 -7 -55
-14z"/>
<path d="M2630 630 c-9 -6 -10 -10 -3 -10 6 0 15 5 18 10 8 12 4 12 -15 0z"/>
<path d="M1320 620 c-13 -8 -13 -10 2 -10 9 0 20 5 23 10 8 13 -5 13 -25 0z"/>
<path d="M1720 618 c0 -5 -5 -6 -12 -2 -6 4 -8 3 -5 -3 4 -6 18 -8 32 -5 30 5
31 8 5 15 -11 3 -20 1 -20 -5z"/>
<path d="M1795 620 c-3 -5 -1 -10 4 -10 6 0 11 5 11 10 0 6 -2 10 -4 10 -3 0
-8 -4 -11 -10z"/>
<path d="M1859 617 c19 -5 49 -5 70 0 31 8 27 9 -34 9 -59 0 -65 -1 -36 -9z"/>
<path d="M2140 620 c0 -5 7 -10 15 -10 8 0 15 5 15 10 0 6 -7 10 -15 10 -8 0
-15 -4 -15 -10z"/>
<path d="M466 607 c3 -10 9 -15 12 -12 3 3 0 11 -7 18 -10 9 -11 8 -5 -6z"/>
<path d="M1260 613 c0 -1 8 -7 18 -12 13 -7 19 -6 19 2 0 7 -9 13 -19 13 -10
0 -18 -1 -18 -3z"/>
<path d="M1508 613 c7 -3 16 -2 19 1 4 3 -2 6 -13 5 -11 0 -14 -3 -6 -6z"/>
<path d="M1664 608 c-4 -7 -4 -10 1 -6 4 4 15 2 24 -5 14 -11 14 -10 2 6 -16
20 -18 21 -27 5z"/>
<path d="M2098 613 c6 -2 18 -2 25 0 6 3 1 5 -13 5 -14 0 -19 -2 -12 -5z"/>
<path d="M2561 610 c10 -7 49 -2 49 5 0 2 -14 3 -31 3 -17 -1 -25 -4 -18 -8z"/>
<path d="M1370 605 c0 -7 30 -13 34 -7 3 4 -4 9 -15 9 -10 1 -19 0 -19 -2z"/>
<path d="M1458 603 c7 -3 16 -2 19 1 4 3 -2 6 -13 5 -11 0 -14 -3 -6 -6z"/>
<path d="M1635 600 c3 -5 8 -10 11 -10 2 0 4 5 4 10 0 6 -5 10 -11 10 -5 0 -7
-4 -4 -10z"/>
<path d="M1998 603 c7 -3 16 -2 19 1 4 3 -2 6 -13 5 -11 0 -14 -3 -6 -6z"/>
<path d="M2260 598 c-19 -6 -30 -12 -24 -14 5 -3 28 2 50 10 45 17 26 19 -26
4z"/>
<path d="M2368 603 c7 -3 16 -2 19 1 4 3 -2 6 -13 5 -11 0 -14 -3 -6 -6z"/>
<path d="M712 575 c0 -16 2 -22 5 -12 2 9 2 23 0 30 -3 6 -5 -1 -5 -18z"/>
<path d="M1100 574 c0 -14 4 -23 9 -19 11 6 10 45 -1 45 -4 0 -8 -12 -8 -26z"/>
<path d="M1323 593 c9 -2 23 -2 30 0 6 3 -1 5 -18 5 -16 0 -22 -2 -12 -5z"/>
<path d="M1538 595 c-2 -3 -26 -6 -52 -6 -26 -1 -49 -7 -53 -12 -7 -12 98 1
112 14 5 5 7 9 4 9 -3 0 -8 -2 -11 -5z"/>
<path d="M1568 593 c6 -2 18 -2 25 0 6 3 1 5 -13 5 -14 0 -19 -2 -12 -5z"/>
<path d="M1738 593 c7 -3 16 -2 19 1 4 3 -2 6 -13 5 -11 0 -14 -3 -6 -6z"/>
<path d="M1870 590 c20 -13 33 -13 25 0 -3 6 -14 10 -23 10 -15 0 -15 -2 -2
-10z"/>
<path d="M2418 593 c7 -3 16 -2 19 1 4 3 -2 6 -13 5 -11 0 -14 -3 -6 -6z"/>
<path d="M1818 583 c7 -3 16 -2 19 1 4 3 -2 6 -13 5 -11 0 -14 -3 -6 -6z"/>
<path d="M2185 580 c-4 -6 3 -10 14 -10 25 0 27 6 6 13 -8 4 -17 2 -20 -3z"/>
<path d="M2343 578 c-12 -5 -6 -6 15 -4 19 3 36 7 39 10 8 7 -32 3 -54 -6z"/>
<path d="M1347 566 c-17 -13 -16 -14 7 -12 13 0 22 5 18 10 -3 5 2 7 11 3 10
-3 17 -2 17 3 0 14 -32 12 -53 -4z"/>
<path d="M1768 573 c7 -3 16 -2 19 1 4 3 -2 6 -13 5 -11 0 -14 -3 -6 -6z"/>
<path d="M2115 570 c-28 -7 -28 -8 -5 -9 14 0 32 4 40 9 17 11 8 11 -35 0z"/>
<path d="M786 557 c3 -10 9 -15 12 -12 3 3 0 11 -7 18 -10 9 -11 8 -5 -6z"/>
<path d="M1298 563 c7 -3 16 -2 19 1 4 3 -2 6 -13 5 -11 0 -14 -3 -6 -6z"/>
<path d="M1648 563 c7 -3 16 -2 19 1 4 3 -2 6 -13 5 -11 0 -14 -3 -6 -6z"/>
<path d="M1960 560 c-17 -6 -9 -7 25 -3 28 3 52 7 54 9 8 7 -54 2 -79 -6z"/>
<path d="M2240 566 c0 -2 9 -6 20 -9 11 -3 18 -1 14 4 -5 9 -34 13 -34 5z"/>
<path d="M1071 544 c0 -11 3 -14 6 -6 3 7 2 16 -1 19 -3 4 -6 -2 -5 -13z"/>
<path d="M1175 550 c-2 -4 7 -7 20 -7 33 0 40 12 9 13 -13 1 -26 -2 -29 -6z"/>
<path d="M1608 553 c7 -3 16 -2 19 1 4 3 -2 6 -13 5 -11 0 -14 -3 -6 -6z"/>
<path d="M1880 550 c8 -5 24 -10 34 -10 26 0 18 6 -19 14 -22 5 -26 4 -15 -4z"/>
<path d="M2198 553 c6 -2 18 -2 25 0 6 3 1 5 -13 5 -14 0 -19 -2 -12 -5z"/>
<path d="M1278 543 c7 -3 16 -2 19 1 4 3 -2 6 -13 5 -11 0 -14 -3 -6 -6z"/>
<path d="M1463 543 c9 -2 23 -2 30 0 6 3 -1 5 -18 5 -16 0 -22 -2 -12 -5z"/>
<path d="M1579 536 c22 -12 23 -14 6 -23 -16 -10 -16 -10 0 -17 10 -3 20 -4
23 -1 3 3 0 5 -8 5 -10 0 -10 3 -1 14 10 12 8 17 -8 25 -11 6 -23 11 -28 11
-4 -1 3 -7 16 -14z"/>
<path d="M1718 543 c6 -2 18 -2 25 0 6 3 1 5 -13 5 -14 0 -19 -2 -12 -5z"/>
<path d="M1780 540 c0 -6 7 -10 15 -10 8 0 15 2 15 4 0 2 -7 6 -15 10 -8 3
-15 1 -15 -4z"/>
<path d="M1820 546 c0 -2 9 -6 20 -9 11 -3 20 -1 20 4 0 5 -9 9 -20 9 -11 0
-20 -2 -20 -4z"/>
<path d="M2158 543 c7 -3 16 -2 19 1 4 3 -2 6 -13 5 -11 0 -14 -3 -6 -6z"/>
<path d="M467 519 c4 -13 8 -18 11 -10 2 7 -1 18 -6 23 -8 8 -9 4 -5 -13z"/>
<path d="M712 510 c0 -19 2 -27 5 -17 2 9 2 25 0 35 -3 9 -5 1 -5 -18z"/>
<path d="M1100 520 c0 -11 2 -20 4 -20 2 0 6 9 9 20 3 11 1 20 -4 20 -5 0 -9
-9 -9 -20z"/>
<path d="M1417 533 c-10 -10 -8 -23 4 -23 5 0 8 4 5 9 -4 5 0 12 6 14 7 3 8 6
2 6 -6 1 -14 -2 -17 -6z"/>
<path d="M1669 528 c7 -10 23 -17 35 -17 20 1 20 2 1 6 -11 3 -27 10 -35 17
-13 10 -13 9 -1 -6z"/>
<path d="M2108 533 c6 -2 18 -2 25 0 6 3 1 5 -13 5 -14 0 -19 -2 -12 -5z"/>
<path d="M1178 523 c7 -3 16 -2 19 1 4 3 -2 6 -13 5 -11 0 -14 -3 -6 -6z"/>
<path d="M1538 523 c7 -3 16 -2 19 1 4 3 -2 6 -13 5 -11 0 -14 -3 -6 -6z"/>
<path d="M1738 523 c6 -2 18 -2 25 0 6 3 1 5 -13 5 -14 0 -19 -2 -12 -5z"/>
<path d="M1999 519 c-10 -6 -7 -9 14 -9 29 0 35 5 14 13 -8 3 -20 1 -28 -4z"/>
<path d="M2058 523 c6 -2 18 -2 25 0 6 3 1 5 -13 5 -14 0 -19 -2 -12 -5z"/>
<path d="M582 500 c0 -14 2 -19 5 -12 2 6 2 18 0 25 -3 6 -5 1 -5 -13z"/>
<path d="M763 485 c0 -22 2 -30 4 -17 2 12 2 30 0 40 -3 9 -5 -1 -4 -23z"/>
<path d="M1498 513 c7 -3 16 -2 19 1 4 3 -2 6 -13 5 -11 0 -14 -3 -6 -6z"/>
<path d="M1628 508 c5 -5 16 -8 23 -6 8 3 3 7 -10 11 -17 4 -21 3 -13 -5z"/>
<path d="M1930 510 c34 -11 60 -11 35 0 -11 5 -29 8 -40 8 -16 0 -15 -2 5 -8z"/>
<path d="M2110 510 c-18 -12 -2 -12 25 0 13 6 15 9 5 9 -8 0 -22 -4 -30 -9z"/>
<path d="M456 485 c8 -37 14 -45 14 -19 0 10 -5 26 -10 34 -8 11 -9 7 -4 -15z"/>
<path d="M1315 500 c-3 -5 1 -10 10 -10 9 0 13 5 10 10 -3 6 -8 10 -10 10 -2
0 -7 -4 -10 -10z"/>
<path d="M1356 501 c-3 -4 6 -6 19 -3 14 2 25 6 25 8 0 8 -39 4 -44 -5z"/>
<path d="M1465 500 c3 -5 11 -10 16 -10 6 0 7 5 4 10 -3 6 -11 10 -16 10 -6 0
-7 -4 -4 -10z"/>
<path d="M1805 496 c-27 -6 -54 -14 -60 -17 -5 -4 -19 -5 -31 -4 -11 1 -21 -4
-21 -10 0 -8 30 -5 96 12 53 13 101 26 106 28 21 8 -43 2 -90 -9z"/>
<path d="M2031 499 c-25 -5 -49 -13 -54 -18 -5 -5 17 -3 48 4 31 8 60 16 63
19 6 7 1 7 -57 -5z"/>
<path d="M1678 493 c6 -2 18 -2 25 0 6 3 1 5 -13 5 -14 0 -19 -2 -12 -5z"/>
<path d="M1095 463 c0 -15 5 -28 10 -30 15 -5 16 34 1 46 -9 7 -12 3 -11 -16z"/>
<path d="M1177 474 c3 -7 9 -14 14 -14 14 0 10 17 -5 23 -10 4 -13 1 -9 -9z"/>
<path d="M1278 483 c7 -3 16 -2 19 1 4 3 -2 6 -13 5 -11 0 -14 -3 -6 -6z"/>
<path d="M1626 481 c-4 -5 3 -7 14 -4 23 6 26 13 6 13 -8 0 -17 -4 -20 -9z"/>
<path d="M1223 473 c9 -2 23 -2 30 0 6 3 -1 5 -18 5 -16 0 -22 -2 -12 -5z"/>
<path d="M1306 472 c-3 -4 4 -9 15 -9 23 -2 25 3 4 10 -8 4 -16 3 -19 -1z"/>
<path d="M1926 471 c-4 -5 3 -7 14 -4 23 6 26 13 6 13 -8 0 -17 -4 -20 -9z"/>
<path d="M1135 460 c-3 -5 -1 -10 4 -10 6 0 11 5 11 10 0 6 -2 10 -4 10 -3 0
-8 -4 -11 -10z"/>
<path d="M1427 459 c7 -7 15 -10 18 -7 3 3 -2 9 -12 12 -14 6 -15 5 -6 -5z"/>
<path d="M2470 460 c-23 -7 -23 -8 -3 -9 12 -1 25 4 28 9 3 6 5 10 3 9 -2 -1
-14 -5 -28 -9z"/>
<path d="M1650 450 c-13 -8 -12 -10 3 -10 9 0 17 5 17 10 0 12 -1 12 -20 0z"/>
<path d="M683 405 c0 -27 2 -38 4 -22 2 15 2 37 0 50 -2 12 -4 0 -4 -28z"/>
<path d="M1168 443 c6 -2 18 -2 25 0 6 3 1 5 -13 5 -14 0 -19 -2 -12 -5z"/>
<path d="M1318 438 c17 -5 47 -5 65 0 27 7 22 8 -33 8 -55 0 -60 -1 -32 -8z"/>
<path d="M472 420 c0 -14 2 -19 5 -12 2 6 2 18 0 25 -3 6 -5 1 -5 -13z"/>
<path d="M1708 433 c7 -3 16 -2 19 1 4 3 -2 6 -13 5 -11 0 -14 -3 -6 -6z"/>
<path d="M1198 423 c6 -2 18 -2 25 0 6 3 1 5 -13 5 -14 0 -19 -2 -12 -5z"/>
<path d="M1398 423 c7 -3 16 -2 19 1 4 3 -2 6 -13 5 -11 0 -14 -3 -6 -6z"/>
<path d="M1758 423 c7 -3 16 -2 19 1 4 3 -2 6 -13 5 -11 0 -14 -3 -6 -6z"/>
<path d="M861 404 c0 -11 3 -14 6 -6 3 7 2 16 -1 19 -3 4 -6 -2 -5 -13z"/>
<path d="M1099 393 c4 -15 13 -28 19 -29 7 -1 8 0 2 3 -5 2 -10 16 -10 29 0
13 -4 24 -9 24 -5 0 -6 -12 -2 -27z"/>
<path d="M1325 410 c-3 -5 -13 -7 -23 -4 -14 5 -14 4 -3 -4 14 -10 51 0 51 13
0 9 -19 5 -25 -5z"/>
<path d="M1215 390 c-25 -11 1 -11 35 0 20 6 21 8 5 8 -11 0 -29 -3 -40 -8z"/>
<path d="M1448 393 c7 -3 16 -2 19 1 4 3 -2 6 -13 5 -11 0 -14 -3 -6 -6z"/>
<path d="M1170 380 c-9 -6 -10 -10 -3 -10 6 0 15 5 18 10 8 12 4 12 -15 0z"/>
<path d="M1360 380 c-23 -7 -23 -8 -3 -9 12 -1 25 4 28 9 3 6 5 10 3 9 -2 -1
-14 -5 -28 -9z"/>
<path d="M1408 383 c7 -3 16 -2 19 1 4 3 -2 6 -13 5 -11 0 -14 -3 -6 -6z"/>
<path d="M1578 373 c7 -3 16 -2 19 1 4 3 -2 6 -13 5 -11 0 -14 -3 -6 -6z"/>
<path d="M1298 363 c6 -2 18 -2 25 0 6 3 1 5 -13 5 -14 0 -19 -2 -12 -5z"/>
<path d="M1538 363 c7 -3 16 -2 19 1 4 3 -2 6 -13 5 -11 0 -14 -3 -6 -6z"/>
<path d="M1225 350 c-25 -11 1 -11 35 0 20 6 21 8 5 8 -11 0 -29 -3 -40 -8z"/>
<path d="M1450 345 c-25 -7 -36 -13 -25 -13 11 0 38 5 60 13 52 17 24 17 -35
0z"/>
<path d="M1093 335 c-3 -9 -3 -18 -1 -21 3 -3 8 4 11 16 6 23 -1 27 -10 5z"/>
<path d="M1167 339 c7 -7 15 -10 18 -7 3 3 -2 9 -12 12 -14 6 -15 5 -6 -5z"/>
<path d="M682 315 c0 -16 2 -22 5 -12 2 9 2 23 0 30 -3 6 -5 -1 -5 -18z"/>
<path d="M1368 323 c6 -2 18 -2 25 0 6 3 1 5 -13 5 -14 0 -19 -2 -12 -5z"/>
<path d="M641 304 c0 -11 3 -14 6 -6 3 7 2 16 -1 19 -3 4 -6 -2 -5 -13z"/>
<path d="M1325 310 c-3 -6 1 -7 9 -4 18 7 21 14 7 14 -6 0 -13 -4 -16 -10z"/>
<path d="M1091 284 c0 -11 3 -14 6 -6 3 7 2 16 -1 19 -3 4 -6 -2 -5 -13z"/>
<path d="M1110 280 c0 -12 7 -20 18 -20 14 0 15 2 2 10 -13 9 -13 11 0 20 13
8 12 10 -2 10 -11 0 -18 -8 -18 -20z"/>
<path d="M961 274 c0 -11 3 -14 6 -6 3 7 2 16 -1 19 -3 4 -6 -2 -5 -13z"/>
<path d="M1788 283 c7 -3 16 -2 19 1 4 3 -2 6 -13 5 -11 0 -14 -3 -6 -6z"/>
<path d="M1547 269 c7 -7 15 -10 18 -7 3 3 -2 9 -12 12 -14 6 -15 5 -6 -5z"/>
<path d="M1485 254 c-10 -8 -14 -14 -8 -14 7 0 14 4 18 10 3 5 12 7 20 3 8 -3
15 -3 15 0 0 13 -28 13 -45 1z"/>
<path d="M1397 219 c7 -7 15 -10 18 -7 3 3 -2 9 -12 12 -14 6 -15 5 -6 -5z"/>
<path d="M1480 210 c-13 -8 -12 -10 3 -10 9 0 17 5 17 10 0 12 -1 12 -20 0z"/>
<path d="M982 190 c0 -14 2 -19 5 -12 2 6 2 18 0 25 -3 6 -5 1 -5 -13z"/>
<path d="M1435 200 c-3 -5 -2 -10 4 -10 5 0 13 5 16 10 3 6 2 10 -4 10 -5 0
-13 -4 -16 -10z"/>
<path d="M1340 185 c0 -7 30 -13 34 -7 3 4 -4 9 -15 9 -10 1 -19 0 -19 -2z"/>
<path d="M1100 145 c0 -8 4 -15 10 -15 5 0 7 7 4 15 -4 8 -8 15 -10 15 -2 0
-4 -7 -4 -15z"/>
</g>
</svg>
